<svg width="52" height="52" viewBox="0 0 52 52" fill="none" xmlns="http://www.w3.org/2000/svg">
<circle cx="26" cy="26" r="26" fill="#104AE0" fill-opacity="0.5"/>
<path d="M35.256 16.1757C35.5775 16.4978 35.5807 17.0181 35.2657 17.3442L35.256 17.354L33.405 19.2086L33.416 19.6039L33.7944 19.6089L35.6505 17.7493L35.6603 17.7396C35.9825 17.4271 36.4947 17.4271 36.8169 17.7397L36.8266 17.7493L36.9289 17.8518L36.9779 17.9019C38.5747 19.5647 38.2498 22.4081 36.3576 24.3039C35.2275 25.4361 33.4694 26.0709 31.9882 25.9625L30.9154 27.0373L36.8383 32.9714C38.2122 34.348 38.2122 36.5799 36.8383 37.9565C35.478 39.3194 33.2811 39.333 31.9042 37.9974L31.8627 37.9565L25.9399 32.0224L20.006 37.9676C18.6321 39.3441 16.4044 39.3441 15.0305 37.9676C13.6702 36.6047 13.6566 34.4036 14.9897 33.024L15.0305 32.9825L20.9643 27.0372L19.3171 25.3869L16.4391 23.8826C16.341 23.8314 16.2542 23.761 16.1836 23.6757C16.113 23.5905 16.0601 23.4919 16.028 23.3859L16.024 23.3725L14.5175 18.0811C14.4774 17.9403 14.475 17.7915 14.5106 17.6496C14.5462 17.5077 14.6184 17.3776 14.7201 17.2726L14.7291 17.2633L16.3383 15.6511C16.4433 15.5459 16.5746 15.4708 16.7184 15.4336C16.8622 15.3964 17.0134 15.3984 17.1561 15.4396L17.1683 15.4432L22.3726 17.0299C22.4811 17.0629 22.5816 17.1178 22.6681 17.1913C22.7546 17.2647 22.8252 17.355 22.8755 17.4568L22.8816 17.4694L24.2538 20.3628L25.9398 22.0521L27.053 20.9368C26.975 19.4712 27.6057 17.7559 28.714 16.6456C30.6061 14.7498 33.4441 14.4242 35.1037 16.024L35.1536 16.0731L35.256 16.1757V16.1757ZM36.1461 19.6094L34.7223 21.0358L34.7125 21.0455C34.5581 21.1952 34.3518 21.2792 34.1369 21.2799L34.1232 21.2798L32.6619 21.2604L32.6482 21.2601C32.4108 21.2531 32.199 21.1467 32.052 20.9814C31.8901 20.8369 31.7846 20.6296 31.7743 20.3963L31.7738 20.3825L31.7325 18.8964C31.7294 18.7854 31.7484 18.6749 31.7886 18.5715C31.8287 18.468 31.889 18.3736 31.9661 18.2938L31.9757 18.284L33.3994 16.8576L33.3914 16.854C32.4062 16.4236 31 16.7387 29.9295 17.7848L29.89 17.8239C29.0305 18.685 28.5654 20.1383 28.7485 21.1542L28.7542 21.1848C28.8344 21.5964 28.5974 21.9963 28.2136 22.1307L16.2065 34.1608C15.4821 34.8866 15.4821 36.0634 16.2065 36.7893C16.9237 37.5079 18.0821 37.515 18.8081 36.8108L18.83 36.7893L30.9071 24.6891L30.9246 24.7067C31.0861 24.3847 31.4447 24.1945 31.8148 24.2613L31.827 24.2635L31.8576 24.2693C32.8614 24.4509 34.2931 23.996 35.1556 23.1513L35.1816 23.1256L35.2205 23.086C36.2542 22.0241 36.5728 20.6328 36.1623 19.6472L36.1496 19.6175L36.1461 19.6094V19.6094ZM21.5371 18.5169L17.1615 17.1829L16.251 18.0952L17.5253 22.5709L20.1645 23.9504C20.1811 23.9591 20.1973 23.9682 20.2131 23.9779L20.2379 23.953L22.1403 25.859L24.7638 23.2305L23.0991 21.5626C23.022 21.5081 22.9548 21.4408 22.9004 21.3635L22.8614 21.3245L22.8695 21.3163C22.8568 21.2955 22.8451 21.2741 22.8343 21.2522L22.8283 21.2398L21.537 18.5169L21.5371 18.5169ZM29.7394 28.2155L27.1159 30.8441L33.0387 36.7782C33.7632 37.5041 34.9377 37.5041 35.6622 36.7782C36.3794 36.0597 36.3866 34.8991 35.6837 34.1717L35.6622 34.1497L29.7394 28.2155V28.2155ZM34.841 34.794C35.1658 35.1194 35.1658 35.6469 34.841 35.9723C34.5195 36.2944 34.0003 36.2976 33.6748 35.982L33.665 35.9723L30.0477 32.348C29.7229 32.0226 29.7229 31.4951 30.0477 31.1697C30.3692 30.8475 30.8884 30.8443 31.2139 31.16L31.2237 31.1697L34.841 34.794Z" fill="url(#paint0_linear_259_6309)"/>
<defs>
<linearGradient id="paint0_linear_259_6309" x1="26" y1="15" x2="26" y2="51.5" gradientUnits="userSpaceOnUse">
<stop stop-color="#00DDFF"/>
<stop offset="1" stop-color="#0E7AC3"/>
</linearGradient>
</defs>
</svg>
