<svg width="52" height="52" viewBox="0 0 52 52" fill="none" xmlns="http://www.w3.org/2000/svg">
<circle cx="26" cy="26" r="26" fill="#104AE0" fill-opacity="0.5"/>
<path fill-rule="evenodd" clip-rule="evenodd" d="M27.1788 14.214C27.1788 13.7513 26.9593 13.52 26.5202 13.52C26.081 13.52 25.8615 13.7513 25.8615 14.214V15.602C25.8615 16.0646 26.081 16.296 26.5202 16.296C26.9593 16.296 27.1788 16.0646 27.1788 15.602V14.214ZM34.4241 25.9882C34.4241 21.3891 30.8851 17.6603 26.5201 17.6603C22.1551 17.6603 18.6161 21.3891 18.6161 25.9882V37.0919H17.2987C16.8596 37.0919 16.64 37.3232 16.64 37.7859C16.64 38.2486 16.8596 38.4799 17.2987 38.4799H19.2692L19.2748 38.4799H33.7654L33.771 38.4799H35.7414C36.1805 38.4799 36.4 38.2486 36.4 37.7859C36.4 37.3232 36.1805 37.0919 35.7414 37.0919H34.4241V25.9882ZM19.9334 25.9882V37.0919H33.1068V25.9882C33.1068 22.1553 30.1579 19.0483 26.5201 19.0483C22.8823 19.0483 19.9334 22.1553 19.9334 25.9882ZM28.3058 27.472L26.7033 26.574L27.6406 24.7176C27.6812 24.6371 27.7063 24.549 27.7146 24.4583C27.7229 24.3676 27.7142 24.276 27.6889 24.1889C27.6636 24.1017 27.6223 24.0207 27.5672 23.9503C27.5122 23.88 27.4446 23.8218 27.3682 23.779C27.2918 23.7362 27.2082 23.7097 27.1221 23.7009C27.036 23.6922 26.9491 23.7014 26.8664 23.7281C26.7836 23.7547 26.7067 23.7983 26.64 23.8563C26.5732 23.9142 26.518 23.9855 26.4774 24.066L25.2404 26.5164C25.1664 26.6625 25.1447 26.8317 25.1791 26.9932C25.1968 27.0963 25.2365 27.1939 25.2951 27.2785C25.3537 27.3631 25.4298 27.4326 25.5177 27.4818L27.248 28.4513L25.7113 31.4958C25.6292 31.6583 25.6118 31.8485 25.6628 32.0246C25.7138 32.2007 25.8291 32.3482 25.9834 32.4347C26.1376 32.5212 26.3182 32.5397 26.4853 32.4859C26.6524 32.4321 26.7924 32.3106 26.8745 32.1481L28.6516 28.6254C28.7188 28.5437 28.7669 28.4465 28.7919 28.3416C28.817 28.2368 28.8183 28.1272 28.7959 28.0217C28.773 27.8901 28.7146 27.7683 28.6277 27.6708C28.5408 27.5733 28.429 27.5043 28.3058 27.472ZM19.0818 16.7865C19.3922 16.4594 19.7027 16.4594 20.0132 16.7865L20.9447 17.7679C21.2552 18.0951 21.2552 18.4222 20.9447 18.7494C20.6342 19.0765 20.3237 19.0765 20.0132 18.7494L19.0818 17.7679C18.7713 17.4408 18.7713 17.1136 19.0818 16.7865ZM33.187 16.7633C33.4975 16.4361 33.808 16.4361 34.1185 16.7633C34.429 17.0904 34.429 17.4176 34.1185 17.7447L33.187 18.7262C32.8765 19.0533 32.566 19.0533 32.2555 18.7262C31.9451 18.399 31.9451 18.0719 32.2555 17.7447L33.187 16.7633Z" fill="url(#paint0_linear_259_6295)"/>
<defs>
<linearGradient id="paint0_linear_259_6295" x1="27" y1="14" x2="27" y2="52" gradientUnits="userSpaceOnUse">
<stop stop-color="#00DDFF"/>
<stop offset="1" stop-color="#0E7AC3"/>
</linearGradient>
</defs>
</svg>
 