<svg width="30" height="30" viewBox="0 0 30 30" fill="none" xmlns="http://www.w3.org/2000/svg">
<rect x="0.5" y="0.5" width="29" height="29" rx="3.5" fill="#0057A9" stroke="#00DDFF"/>
<path d="M15.0005 20.6916C15.2413 20.6916 20.253 13.1527 20.253 10.2525C20.253 7.3523 17.9007 5 15.0005 5C12.1003 5 9.74805 7.3523 9.74805 10.2525C9.74805 13.1527 14.7597 20.6916 15.0005 20.6916ZM12.5175 10.2525C12.5175 8.8815 13.6295 7.7695 15.0005 7.7695C16.3716 7.7695 17.4835 8.8815 17.4835 10.2525C17.4835 11.6236 16.3715 12.7355 15.0005 12.7355C13.6295 12.7355 12.5175 11.6236 12.5175 10.2525Z" fill="white"/>
<path d="M18.798 19.3878C19.9402 19.772 20.6578 20.327 20.6578 20.9442C20.6578 22.1041 18.1246 23.0447 15.0013 23.0447C11.878 23.0447 9.34479 22.1042 9.34479 20.9442C9.34479 20.327 10.0624 19.7721 11.2046 19.3878C8.87819 19.904 7.30859 20.8797 7.30859 21.9983C7.30859 23.6557 10.7538 24.9999 15.0013 24.9999C19.2488 24.9999 22.694 23.6557 22.694 21.9982C22.694 20.8797 21.1244 19.904 18.798 19.3878Z" fill="white"/>
</svg>
