<svg width="30" height="30" viewBox="0 0 30 30" fill="none" xmlns="http://www.w3.org/2000/svg">
<rect width="30" height="30" rx="4" fill="#0057A9"/>
<path d="M15.0005 20.6916C15.2413 20.6916 20.253 13.1527 20.253 10.2525C20.253 7.3523 17.9007 5 15.0005 5C12.1003 5 9.74805 7.3523 9.74805 10.2525C9.74805 13.1527 14.7597 20.6916 15.0005 20.6916ZM12.5175 10.2525C12.5175 8.8815 13.6295 7.7695 15.0005 7.7695C16.3716 7.7695 17.4835 8.8815 17.4835 10.2525C17.4835 11.6236 16.3715 12.7355 15.0005 12.7355C13.6295 12.7355 12.5175 11.6236 12.5175 10.2525Z" fill="#00DDFF"/>
<path d="M18.798 19.3879C19.9402 19.7721 20.6578 20.3271 20.6578 20.9443C20.6578 22.1042 18.1246 23.0448 15.0013 23.0448C11.878 23.0448 9.34479 22.1043 9.34479 20.9443C9.34479 20.3271 10.0624 19.7722 11.2046 19.3879C8.87819 19.9041 7.30859 20.8798 7.30859 21.9984C7.30859 23.6558 10.7538 25 15.0013 25C19.2488 25 22.694 23.6558 22.694 21.9983C22.694 20.8798 21.1244 19.9041 18.798 19.3879Z" fill="#00DDFF"/>
</svg>
