<svg width="24" height="24" viewBox="0 0 24 24" fill="none" xmlns="http://www.w3.org/2000/svg">
<circle cx="12" cy="12" r="11" fill="#050131"/>
<path fill-rule="evenodd" clip-rule="evenodd" d="M12 1C5.92487 1 1 5.92487 1 12H0C0 5.37258 5.37258 0 12 0C16.4423 0 20.3202 2.41413 22.3943 5.99964L21.5287 6.50036C19.626 3.21115 16.0709 1 12 1ZM12 23C18.0751 23 23 18.0751 23 12H24C24 18.6274 18.6274 24 12 24C7.55768 24 3.67979 21.5859 1.60569 18.0004L2.4713 17.4996C4.374 20.7888 7.92908 23 12 23Z" fill="#FF7217"/>
<path d="M0 13V12V11.5L3 10V11L0 13Z" fill="#FF7217"/>
<path d="M24 11V12V12.5L21 14V13L24 11Z" fill="#FF7217"/>
<path d="M13.3172 10.4633L14.8641 6.85217H11.2255L8.57031 13.1391H11.7891L10.0487 17.7523H11.5939L16.1848 10.4633H13.3172Z" fill="#FF7217"/>
</svg>
