<svg width="2168" height="148" viewBox="0 0 2168 148" fill="none" xmlns="http://www.w3.org/2000/svg">
<path d="M525.5 155H0V181H2167V158.5H1648L1554.32 45H1472.73L1452.46 55.5H713.499L694.791 46H613.204L525.5 155Z" fill="url(#paint0_linear_8775:32096)"/>
<path fill-rule="evenodd" clip-rule="evenodd" d="M1139.99 55.176H1453.42H1453.69L1453.95 55.0812L1474.06 47.573H1554.08L1622.98 130.718L1625.29 128.803L1555.94 45.1159L1555.49 44.573H1554.79H1473.79H1473.52L1473.26 44.6678L1453.15 52.176H1139.87C1139.94 53.169 1139.98 54.1692 1139.99 55.176ZM1030.13 52.176H713.174L694.871 44.6848L694.598 44.573H694.303H613.506H612.788L612.338 45.1324L544.967 128.82L547.304 130.701L614.224 47.573H694.008L712.311 55.0642L712.584 55.176H712.879H1030.01C1030.02 54.1692 1030.06 53.169 1030.13 52.176Z" fill="#00A3FF"/>
<path d="M571 81.4791L531.8 129.76L1.00001 129.76" stroke="url(#paint1_linear_8775:32096)" stroke-width="3"/>
<path d="M1598 81.4791L1637.2 129.76L2168 129.76" stroke="url(#paint2_linear_8775:32096)" stroke-width="3"/>
<g clip-path="url(#clip0_8775:32096)">
<path d="M1236.29 102.259C1236.11 102.074 1235.9 101.927 1235.66 101.826C1235.42 101.726 1235.16 101.674 1234.91 101.674C1234.65 101.674 1234.39 101.726 1234.16 101.826C1233.92 101.927 1233.7 102.074 1233.52 102.259L1232.04 103.791L1229.54 101.219L1233.05 97.2781C1235.46 98.6786 1238.27 99.2342 1241.03 98.8567C1243.79 98.4791 1246.35 97.1901 1248.29 95.1942C1250.08 93.3518 1251.29 91.0282 1251.78 88.5075C1252.27 85.9869 1252.01 83.3783 1251.04 81.0007L1242.79 89.3168L1235.84 82.2619L1244.08 73.9508C1241.75 72.9818 1239.19 72.7362 1236.72 73.2459C1234.25 73.7556 1232 74.997 1230.25 76.8082C1228.1 79.0301 1226.81 81.9329 1226.59 85.0114C1226.36 88.0899 1227.23 91.1493 1229.02 93.6571L1225.28 96.8594L1212.43 83.6906L1212.38 79.6754L1204.74 74.9016L1201 78.7296L1205.64 86.3559H1209.66L1222.36 99.3769L1203.23 115.748C1202.49 116.507 1202.08 117.523 1202.08 118.581C1202.08 119.639 1202.49 120.655 1203.23 121.413L1204.63 122.827C1204.99 123.199 1205.42 123.494 1205.9 123.696C1206.37 123.898 1206.88 124.001 1207.4 124.001C1207.92 124.001 1208.43 123.898 1208.91 123.696C1209.38 123.494 1209.81 123.199 1210.17 122.827L1226.97 104.082L1229.36 106.545L1227.98 107.944C1227.61 108.324 1227.4 108.832 1227.4 109.361C1227.4 109.889 1227.61 110.397 1227.98 110.777L1240.12 123.31C1240.3 123.495 1240.52 123.642 1240.76 123.743C1240.99 123.843 1241.25 123.895 1241.51 123.895C1241.77 123.895 1242.02 123.843 1242.26 123.743C1242.5 123.642 1242.71 123.495 1242.89 123.31L1248.44 117.645C1248.81 117.264 1249.01 116.757 1249.01 116.228C1249.01 115.7 1248.81 115.192 1248.44 114.812L1236.29 102.259ZM1207.83 120.576C1207.65 120.762 1207.44 120.909 1207.2 121.01C1206.96 121.111 1206.7 121.163 1206.45 121.163C1206.19 121.163 1205.93 121.111 1205.69 121.01C1205.45 120.909 1205.24 120.762 1205.06 120.576C1204.69 120.196 1204.49 119.688 1204.49 119.16C1204.49 118.631 1204.69 118.123 1205.06 117.743C1205.24 117.559 1205.46 117.412 1205.69 117.312C1205.93 117.212 1206.19 117.16 1206.45 117.16C1206.7 117.16 1206.96 117.212 1207.2 117.312C1207.44 117.412 1207.65 117.559 1207.83 117.743C1208.2 118.123 1208.4 118.631 1208.4 119.16C1208.4 119.688 1208.2 120.196 1207.83 120.576Z" fill="url(#paint3_linear_8775:32096)"/>
</g>
<path d="M1283.26 87.984H1271.87V86.32H1296.42V87.984H1284.99V109.776H1297.79V111.504H1270.21V109.776H1283.26V87.984ZM1315.39 85.232H1328V94.096H1315.39V85.232ZM1326.34 92.528V86.8H1317.09V92.528H1326.34ZM1313.89 97.456H1329.63V99.056H1322.43V103.792H1328.67V105.36H1322.43V110.288H1330.4V111.92H1312.61V110.288H1320.7V105.36H1314.66V103.792H1320.7V99.056H1313.89V97.456ZM1301.95 92.912H1306.82V87.664C1305.47 87.8987 1303.96 88.1013 1302.27 88.272L1301.92 86.608C1306.08 86.224 1309.65 85.5307 1312.64 84.528L1313.25 86.16C1311.63 86.6507 1310.03 87.056 1308.45 87.376V92.912H1312.96V94.544H1308.45V96.496C1310.07 98.1173 1311.66 99.9093 1313.22 101.872L1312.22 103.344C1310.71 101.04 1309.45 99.28 1308.45 98.064V113.008H1306.82V97.712C1305.69 101.125 1304.07 104.229 1301.98 107.024L1301.22 105.136C1303.82 102 1305.62 98.4693 1306.62 94.544H1301.95V92.912Z" fill="#00A3FF"/>
<g clip-path="url(#clip1_8775:32096)">
<path d="M1440.86 114.085C1440.57 112.608 1439.77 111.277 1438.62 110.317C1437.46 109.357 1436 108.828 1434.5 108.819C1434 108.817 1433.5 108.873 1433.02 108.986V91.778L1418.78 83.4092C1420.03 82.1849 1420.76 80.5208 1420.8 78.7719C1420.83 77.023 1420.19 75.3279 1419 74.0482C1418.41 73.4233 1417.71 72.9211 1416.93 72.5712C1416.15 72.2212 1415.31 72.0305 1414.45 72.0102C1413.6 71.9899 1412.75 72.1404 1411.95 72.453C1411.16 72.7655 1410.43 73.2337 1409.82 73.8302C1408.55 75.0747 1407.83 76.7727 1407.81 78.5508C1407.79 80.3289 1408.48 82.0414 1409.72 83.3117L1395.32 91.7722V109.519C1394.47 109.414 1393.6 109.48 1392.77 109.712C1391.94 109.944 1391.17 110.338 1390.49 110.872C1389.82 111.405 1389.25 112.067 1388.83 112.819C1388.41 113.572 1388.15 114.399 1388.05 115.255C1387.82 116.981 1388.29 118.728 1389.34 120.114C1390.39 121.501 1391.95 122.414 1393.68 122.654C1395.35 122.86 1397.04 122.407 1398.39 121.392C1399.74 120.376 1400.64 118.878 1400.91 117.211L1414.16 125.006L1428.12 116.804C1428.28 117.648 1428.61 118.45 1429.09 119.166C1429.57 119.881 1430.18 120.494 1430.9 120.971C1431.61 121.447 1432.42 121.777 1433.26 121.941C1434.1 122.105 1434.97 122.1 1435.81 121.926C1437.52 121.55 1439 120.515 1439.95 119.047C1440.89 117.579 1441.22 115.798 1440.86 114.091V114.085ZM1399.22 94.0609L1412.21 86.4378V90.7512L1402.91 96.2061V106.255L1399.24 108.418V94.0609H1399.22ZM1414.2 120.412L1400.43 112.324L1404.11 110.162L1414.2 116.081L1424.14 110.253L1427.81 112.416L1414.2 120.412ZM1429.11 108.567L1425.44 106.41V96.2176L1416.11 90.7512V86.4263L1429.11 94.0551V108.567Z" fill="url(#paint4_linear_8775:32096)"/>
</g>
<path d="M1460.42 84.528C1462.66 86.064 1464.52 87.5787 1465.99 89.072L1464.78 90.256C1463.39 88.8053 1461.54 87.28 1459.24 85.68L1460.42 84.528ZM1459.94 92.048C1462.06 93.584 1463.85 95.1413 1465.32 96.72L1464.1 97.936C1462.87 96.4853 1461.09 94.9067 1458.76 93.2L1459.94 92.048ZM1465.86 101.328C1464.33 105.232 1462.53 109.04 1460.46 112.752L1458.79 112.048C1460.97 108.315 1462.81 104.539 1464.33 100.72L1465.86 101.328ZM1472.49 96.368H1481.38V106.64H1472.49V96.368ZM1479.78 105.104V97.936H1474.06V105.104H1479.78ZM1479.14 112.912L1478.66 111.216L1482.63 111.28C1483.81 111.28 1484.39 110.843 1484.39 109.968V86.992H1469.19V113.008H1467.5V85.328H1486.09V110.32C1486.09 112.048 1485.13 112.912 1483.21 112.912H1479.14ZM1471.53 91.024H1482.38V92.656H1471.53V91.024ZM1493.77 103.248H1515.78V104.784H1505.77V110.864C1505.77 112.357 1505.04 113.104 1503.59 113.104H1500.3L1499.94 111.472C1501.35 111.557 1502.37 111.6 1502.98 111.6C1503.69 111.6 1504.04 111.216 1504.04 110.448V104.784H1493.77V103.248ZM1496.33 93.68C1495.67 94.2133 1494.99 94.7253 1494.31 95.216C1495.31 96.3467 1496.19 97.4773 1496.94 98.608C1497.73 98.0107 1498.48 97.36 1499.21 96.656C1498.38 95.696 1497.42 94.704 1496.33 93.68ZM1500.1 95.664C1500.98 94.6613 1501.78 93.52 1502.5 92.24H1497.9L1497.29 92.848C1498.38 93.808 1499.31 94.7467 1500.1 95.664ZM1504.36 90.896V92.048C1501.54 97.488 1497.21 101.2 1491.37 103.184L1490.6 101.808C1492.58 101.147 1494.34 100.325 1495.88 99.344C1495.01 98.064 1494.12 96.9227 1493.22 95.92C1492.82 96.1973 1492.35 96.4853 1491.82 96.784L1490.86 95.664C1494.27 93.808 1496.98 91.472 1498.98 88.656L1500.58 89.008C1500.11 89.712 1499.63 90.3413 1499.14 90.896H1504.36ZM1509.9 106.352C1512.95 107.76 1515.73 109.456 1518.25 111.44L1517.29 112.88C1514.58 110.683 1511.82 108.955 1509 107.696L1509.9 106.352ZM1500.1 106.928C1498.99 108.272 1497.9 109.36 1496.81 110.192C1495.55 111.173 1494 112.069 1492.17 112.88L1491.24 111.472C1492.99 110.811 1494.45 110.021 1495.62 109.104C1496.8 108.187 1497.83 107.173 1498.73 106.064L1500.1 106.928ZM1508.46 92.24C1509.01 93.52 1509.76 94.7253 1510.7 95.856C1511.76 94.7893 1512.74 93.584 1513.64 92.24H1508.46ZM1511.72 96.976C1513.66 98.9387 1516.16 100.464 1519.21 101.552L1518.41 102.992C1515.51 101.925 1513.07 100.475 1511.11 98.64V100.016H1499.59V98.512H1510.98C1508.47 96.1013 1506.79 93.0827 1505.96 89.456L1507.37 88.944C1507.47 89.4133 1507.65 90.0213 1507.88 90.768H1515.56V92.016C1514.45 93.872 1513.17 95.5253 1511.72 96.976ZM1517.74 86.352V92.016H1516.07V87.92H1494.12V91.92H1492.46V86.352H1504.55C1504.13 85.4133 1503.67 84.6133 1503.18 83.952L1505.03 83.664C1505.54 84.5387 1505.97 85.4347 1506.31 86.352H1517.74Z" fill="#00A3FF"/>
<g clip-path="url(#clip2_8775:32096)">
<path d="M870.702 73C874.233 72.9996 877.688 73.9928 880.652 75.8599C883.616 77.727 885.96 80.3881 887.404 83.5225C888.847 86.6568 889.328 90.1304 888.787 93.5243C888.246 96.9182 886.708 100.087 884.357 102.65L861.731 124.658C860.872 125.492 859.709 125.961 858.495 125.961C857.281 125.961 856.118 125.492 855.259 124.658L832.633 102.65C829.513 99.2595 827.846 94.8355 827.975 90.2868C828.105 85.7382 830.02 81.4105 833.328 78.1929C836.636 74.9753 841.085 73.1122 845.762 72.9865C850.438 72.8608 854.987 74.4821 858.472 77.5171C861.823 74.6065 866.159 73.0001 870.651 73.0055L870.702 73ZM868.19 96.7298C867.628 96.7267 867.083 96.9222 866.657 97.28L859.581 104.163L859.434 104.289C859.14 104.511 858.773 104.621 858.402 104.598C858.031 104.574 857.682 104.42 857.42 104.163L850.344 97.28C850.019 96.9828 849.612 96.7856 849.172 96.7131C848.732 96.6406 848.281 96.6959 847.873 96.8723C847.466 97.0486 847.122 97.338 846.883 97.7042C846.644 98.0704 846.522 98.497 846.531 98.9306C846.529 99.476 846.73 100.004 847.097 100.416L855.254 108.35C856.112 109.184 857.276 109.653 858.489 109.653C859.703 109.653 860.867 109.184 861.725 108.35L869.701 100.609L869.87 100.444L869.983 100.306C870.251 99.9791 870.417 99.5849 870.463 99.1694C870.508 98.7539 870.432 98.3344 870.241 97.9599C870.051 97.5854 869.755 97.2714 869.387 97.0545C869.02 96.8376 868.597 96.7269 868.168 96.7353L868.19 96.7298Z" fill="url(#paint5_linear_8775:32096)"/>
</g>
<path d="M910.568 95.544V101.368H916.264V95.544H910.568ZM916.264 93.976V88.088H910.568V93.976H916.264ZM910.536 103C910.387 107.501 909.661 111.224 908.36 114.168L907.016 112.984C908.317 109.955 908.979 106.157 909 101.592V86.456H917.896V111.352C917.896 113.144 917.064 114.04 915.4 114.04H912.84L912.424 112.504C913.619 112.547 914.44 112.568 914.888 112.568C915.805 112.568 916.264 111.971 916.264 110.776V103H910.536ZM922.568 99.832V114.136H920.936V86.456H933.544C933.544 90.232 933.352 92.7493 932.968 94.008C932.627 95.288 931.432 95.928 929.384 95.928H926.92L926.44 94.424H928.584C929.416 94.424 930.035 94.36 930.44 94.232C930.845 94.104 931.155 93.784 931.368 93.272C931.645 92.3973 931.795 90.6587 931.816 88.056H922.568V98.264H933.544V99.736C932.861 103.213 931.731 106.125 930.152 108.472C931.688 110.008 933.523 111.373 935.656 112.568L934.824 114.008C932.563 112.707 930.685 111.299 929.192 109.784C927.763 111.533 926.035 112.952 924.008 114.04L923.112 112.664C925.096 111.533 926.739 110.168 928.04 108.568C925.864 106.008 924.392 103.096 923.624 99.832H922.568ZM925.128 99.832C925.832 102.584 927.123 105.059 929 107.256C930.365 105.144 931.357 102.669 931.976 99.832H925.128ZM950.088 85.08C949.725 85.9333 949.267 86.8187 948.712 87.736H962.888V89.144C960.755 91.6187 958.131 93.7093 955.016 95.416C958.728 97.08 962.909 98.168 967.56 98.68L966.792 100.312C961.693 99.7147 957.139 98.4027 953.128 96.376C949.181 98.1893 944.552 99.512 939.24 100.344L938.44 98.744C943.347 98.0613 947.635 96.9413 951.304 95.384C949.277 94.168 947.421 92.8133 945.736 91.32C944.435 92.536 942.995 93.6027 941.416 94.52L940.36 93.144C944.285 90.904 946.941 88.1307 948.328 84.824L950.088 85.08ZM953.16 94.52C955.976 93.0907 958.397 91.3733 960.424 89.368H947.528C947.229 89.7093 947.016 89.9653 946.888 90.136C948.744 91.8213 950.835 93.2827 953.16 94.52ZM953.128 98.936C953.128 100.259 953.011 101.56 952.776 102.84H964.168C964.104 108.131 963.613 111.277 962.696 112.28C961.757 113.325 960.136 113.848 957.832 113.848C956.872 113.848 955.699 113.816 954.312 113.752L953.864 112.152C955.784 112.237 956.979 112.28 957.448 112.28C959.581 112.237 960.915 111.811 961.448 111C961.981 110.147 962.312 107.949 962.44 104.408H952.392C952.051 105.432 951.677 106.307 951.272 107.032C949.565 109.912 945.811 112.28 940.008 114.136L938.856 112.76C944.104 111.203 947.624 109.197 949.416 106.744C949.821 106.083 950.195 105.304 950.536 104.408H940.648V102.84H951.016C951.293 101.517 951.432 100.216 951.432 98.936H953.128Z" fill="#00A3FF"/>
<g clip-path="url(#clip3_8775:32096)">
<path d="M653 69C647.067 69 641.266 70.7595 636.333 74.0559C631.399 77.3524 627.554 82.0377 625.284 87.5195C623.013 93.0013 622.419 99.0333 623.576 104.853C624.734 110.672 627.591 116.018 631.787 120.213C635.982 124.409 641.328 127.266 647.147 128.424C652.967 129.581 658.999 128.987 664.481 126.716C669.962 124.446 674.648 120.601 677.944 115.667C681.241 110.734 683 104.933 683 99C682.996 91.0447 679.834 83.4163 674.209 77.7911C668.584 72.1658 660.955 69.0039 653 69ZM653 119.099C647.669 119.099 642.556 116.981 638.786 113.212C635.016 109.443 632.898 104.331 632.897 99C632.897 98.5033 632.994 98.0115 633.184 97.5526C633.375 97.0938 633.653 96.6768 634.004 96.3256C634.356 95.9744 634.772 95.6959 635.231 95.5058C635.69 95.3157 636.182 95.2179 636.679 95.2179C637.175 95.2179 637.667 95.3157 638.126 95.5058C638.585 95.6959 639.002 95.9744 639.353 96.3256C639.704 96.6768 639.983 97.0938 640.173 97.5526C640.363 98.0115 640.461 98.5033 640.461 99C640.296 103.495 641.921 107.871 644.981 111.167C648.04 114.464 652.283 116.412 656.777 116.582C661.041 116.434 665.092 114.678 668.114 111.667C671.136 108.655 672.907 104.611 673.07 100.348C673.099 100.052 673.099 99.7516 673.099 99.451C673.099 99.7516 673.07 100.052 673.07 100.348C672.716 105.432 670.449 110.194 666.725 113.673C663.001 117.153 658.097 119.091 653 119.099ZM669.326 102.782C668.829 102.784 668.336 102.688 667.877 102.498C667.417 102.309 666.999 102.03 666.648 101.679C666.296 101.327 666.017 100.909 665.828 100.45C665.639 99.9899 665.542 99.4972 665.544 99C665.709 94.5047 664.083 90.1277 661.022 86.8309C657.962 83.5341 653.718 81.5872 649.223 81.418C644.96 81.5643 640.91 83.3186 637.888 86.3283C634.866 89.338 633.095 93.3801 632.931 97.6423C632.902 97.9405 632.891 98.2399 632.897 98.5394C632.897 98.2387 632.931 97.9429 632.931 97.6423C633.292 92.4467 635.655 87.5939 639.522 84.1056C643.39 80.6172 648.46 78.7655 653.665 78.9402C658.87 79.1148 663.804 81.3023 667.429 85.0421C671.054 88.7819 673.086 93.7821 673.099 98.9903C673.101 99.4873 673.005 99.9799 672.816 100.44C672.628 100.899 672.349 101.317 671.998 101.669C671.647 102.02 671.23 102.299 670.77 102.488C670.311 102.678 669.818 102.774 669.321 102.772L669.326 102.782Z" fill="url(#paint6_linear_8775:32096)"/>
</g>
<path d="M703.48 84.952L701.144 87.16C703.448 89.016 705.208 90.744 706.456 92.344L708.856 89.976C707.384 88.312 705.592 86.616 703.48 84.952ZM721.688 113.816H729.016L729.848 110.52C728.952 110.584 727.704 110.648 726.072 110.712C724.408 110.712 722.808 110.744 721.208 110.744C718.776 110.744 716.632 110.712 714.808 110.68C712.952 110.616 711.576 110.36 710.648 109.88C709.912 109.464 709.176 108.824 708.472 107.992L708.152 107.672V95.48H700.824V98.552H705.048V107.32C703.768 108.024 702.36 109.656 700.76 112.216L703.224 114.52C704.824 111.64 705.912 110.2 706.52 110.2C706.904 110.2 707.288 110.456 707.704 111C708.632 112.088 709.72 112.824 711 113.208C712.344 113.528 714.008 113.72 716.056 113.752C718.072 113.784 719.96 113.816 721.688 113.816ZM711.992 86.2V89.272H727.096V86.2H711.992ZM709.944 93.4V96.568H716.312C713.944 102.136 712.12 105.112 710.84 105.496L711.672 108.408C717.208 107.832 721.688 107.096 725.144 106.2C725.464 107.064 725.752 107.96 726.072 108.92L729.048 108.184C727.768 104.408 726.296 101.08 724.632 98.136L721.912 99.032C722.648 100.408 723.352 101.848 723.992 103.352C721.624 103.96 718.776 104.472 715.416 104.92C716.824 102.872 718.232 100.088 719.64 96.568H729.432V93.4H709.944ZM744.376 86.392V89.688H760.12V86.392H744.376ZM743.608 94.328V97.624H753.176V110.2C753.176 110.84 752.728 111.16 751.864 111.16C750.52 111.16 749.112 111.064 747.64 110.936L748.376 114.2H753.016C755.384 114.2 756.568 113.144 756.568 111.032V97.624H761.496V94.328H743.608ZM738.808 84.888C737.336 87.8 735.096 90.328 732.088 92.472L733.112 95.832C737.24 92.984 740.152 89.816 741.848 86.328L738.808 84.888ZM740.312 92.248C738.584 95.64 735.928 98.616 732.344 101.112L733.368 104.408C734.584 103.544 735.768 102.648 736.856 101.752V114.328H740.152V98.456C741.432 96.92 742.488 95.32 743.32 93.656L740.312 92.248Z" fill="url(#paint7_linear_8775:32096)"/>
<g filter="url(#filter0_i_8775:32096)">
<circle cx="1085" cy="55.0831" r="48.75" fill="url(#paint8_linear_8775:32096)"/>
</g>
<circle cx="1085" cy="55.0831" r="48.75" stroke="#00A3FF" stroke-opacity="0.3" stroke-width="6"/>
<mask id="mask0_8775:32096" style="mask-type:alpha" maskUnits="userSpaceOnUse" x="1033" y="3" width="104" height="104">
<circle cx="1085" cy="55.0831" r="48.75" fill="url(#paint9_linear_8775:32096)" stroke="#00DDFF" stroke-opacity="0.3" stroke-width="6"/>
</mask>
<g mask="url(#mask0_8775:32096)">
<path opacity="0.2" fill-rule="evenodd" clip-rule="evenodd" d="M1029.25 -1.02112H1029.21V-2.02112H1140.79V-1.02112H1140.75V4.47908H1140.79V5.47908H1140.75V10.9788H1140.79V11.9788H1140.75V17.4792H1140.79V18.4792H1140.75V23.9786H1140.79V24.9786H1140.75V30.479H1140.79V31.479H1140.75V36.9791H1140.79V37.9791H1140.75V43.4789H1140.79V44.4789H1140.75V49.9791H1140.79V50.9791H1140.75V56.4788H1140.79V57.4788H1140.75V62.9789H1140.79V63.9789H1140.75V69.4791H1140.79V70.4791H1140.75V75.9786H1140.79V76.9786H1140.75V82.4789H1140.79V83.4789H1140.75V88.9788H1140.79V89.9788H1140.75V95.4788H1140.79V96.4788H1140.75V101.979H1140.79V102.979H1140.75V108.479H1140.79V109.479H1029.21V108.479H1029.25L1029.25 102.979H1029.21V101.979H1029.25L1029.25 96.4788H1029.21V95.4788H1029.25L1029.25 89.9788H1029.21V88.9788H1029.25L1029.25 83.4789H1029.21V82.4789H1029.25L1029.25 76.9786H1029.21V75.9786H1029.25L1029.25 70.4791H1029.21V69.4791H1029.25L1029.25 63.9789H1029.21V62.9789H1029.25L1029.25 57.4788H1029.21V56.4788H1029.25L1029.25 50.9791H1029.21V49.9791H1029.25L1029.25 44.4789H1029.21V43.4789H1029.25L1029.25 37.9791H1029.21V36.9791H1029.25L1029.25 31.479H1029.21V30.479H1029.25L1029.25 24.9786H1029.21V23.9786H1029.25L1029.25 18.4792H1029.21V17.4792H1029.25L1029.25 11.9788H1029.21V10.9788H1029.25L1029.25 5.47908H1029.21V4.47908H1029.25L1029.25 -1.02112ZM1030.25 -1.02112L1030.25 4.47908H1035.75L1035.75 -1.02112H1030.25ZM1036.75 -1.02112L1036.75 4.47908H1042.25V-1.02112H1036.75ZM1043.25 -1.02112V4.47908H1048.75V-1.02112H1043.25ZM1049.75 -1.02112V4.47908H1055.25V-1.02112H1049.75ZM1056.25 -1.02112V4.47908H1061.75V-1.02112H1056.25ZM1062.75 -1.02112V4.47908H1068.25V-1.02112H1062.75ZM1069.25 -1.02112V4.47908H1074.75V-1.02112H1069.25ZM1075.75 -1.02112V4.47908H1081.25V-1.02112H1075.75ZM1082.25 -1.02112V4.47908H1087.75V-1.02112H1082.25ZM1088.75 -1.02112V4.47908H1094.25V-1.02112H1088.75ZM1095.25 -1.02112V4.47908H1100.75V-1.02112H1095.25ZM1101.75 -1.02112V4.47908H1107.25V-1.02112H1101.75ZM1108.25 -1.02112V4.47908H1113.75V-1.02112H1108.25ZM1114.75 -1.02112V4.47908H1120.25V-1.02112H1114.75ZM1121.25 -1.02112V4.47908H1126.75V-1.02112H1121.25ZM1127.75 -1.02112V4.47908H1133.25V-1.02112H1127.75ZM1134.25 -1.02112V4.47908H1139.75V-1.02112H1134.25ZM1139.75 5.47908H1134.25V10.9788H1139.75V5.47908ZM1139.75 11.9788H1134.25V17.4792H1139.75V11.9788ZM1139.75 18.4792H1134.25V23.9786H1139.75V18.4792ZM1139.75 24.9786H1134.25V30.479H1139.75V24.9786ZM1139.75 31.479H1134.25V36.9791H1139.75V31.479ZM1139.75 37.9791H1134.25V43.4789H1139.75V37.9791ZM1139.75 44.4789H1134.25V49.9791H1139.75V44.4789ZM1139.75 50.9791H1134.25V56.4788H1139.75V50.9791ZM1139.75 57.4788H1134.25V62.9789H1139.75V57.4788ZM1139.75 63.9789H1134.25V69.4791H1139.75V63.9789ZM1139.75 70.4791H1134.25V75.9786H1139.75V70.4791ZM1139.75 76.9786H1134.25V82.4789H1139.75V76.9786ZM1139.75 83.4789H1134.25V88.9788H1139.75V83.4789ZM1139.75 89.9788H1134.25V95.4788H1139.75V89.9788ZM1139.75 96.4788H1134.25V101.979H1139.75V96.4788ZM1139.75 102.979H1134.25V108.479H1139.75V102.979ZM1133.25 108.479V102.979H1127.75V108.479H1133.25ZM1126.75 108.479V102.979H1121.25V108.479H1126.75ZM1120.25 108.479V102.979H1114.75V108.479H1120.25ZM1113.75 108.479V102.979H1108.25V108.479H1113.75ZM1107.25 108.479V102.979H1101.75V108.479H1107.25ZM1100.75 108.479V102.979H1095.25V108.479H1100.75ZM1094.25 108.479V102.979H1088.75V108.479H1094.25ZM1087.75 108.479V102.979H1082.25V108.479H1087.75ZM1081.25 108.479V102.979H1075.75V108.479H1081.25ZM1074.75 108.479V102.979H1069.25V108.479H1074.75ZM1068.25 108.479V102.979H1062.75V108.479H1068.25ZM1061.75 108.479V102.979H1056.25V108.479H1061.75ZM1055.25 108.479V102.979H1049.75V108.479H1055.25ZM1048.75 108.479V102.979H1043.25V108.479H1048.75ZM1042.25 108.479V102.979H1036.75L1036.75 108.479H1042.25ZM1035.75 108.479L1035.75 102.979H1030.25L1030.25 108.479H1035.75ZM1030.25 101.979H1035.75V96.4788H1030.25L1030.25 101.979ZM1030.25 95.4788H1035.75L1035.75 89.9788H1030.25L1030.25 95.4788ZM1030.25 88.9788H1035.75V83.4789H1030.25L1030.25 88.9788ZM1030.25 82.4789H1035.75L1035.75 76.9786H1030.25L1030.25 82.4789ZM1030.25 75.9786H1035.75V70.4791H1030.25L1030.25 75.9786ZM1030.25 69.4791H1035.75V63.9789H1030.25L1030.25 69.4791ZM1030.25 62.9789H1035.75L1035.75 57.4788H1030.25L1030.25 62.9789ZM1030.25 56.4788H1035.75V50.9791H1030.25L1030.25 56.4788ZM1030.25 49.9791H1035.75L1035.75 44.4789H1030.25L1030.25 49.9791ZM1030.25 43.4789H1035.75V37.9791H1030.25L1030.25 43.4789ZM1030.25 36.9791H1035.75V31.479H1030.25L1030.25 36.9791ZM1030.25 30.479H1035.75L1035.75 24.9786H1030.25L1030.25 30.479ZM1030.25 23.9786H1035.75V18.4792H1030.25L1030.25 23.9786ZM1030.25 17.4792H1035.75L1035.75 11.9788H1030.25L1030.25 17.4792ZM1030.25 10.9788H1035.75V5.47908H1030.25L1030.25 10.9788ZM1036.75 5.47908V10.9788H1042.25L1042.25 5.47908H1036.75ZM1043.25 5.47908L1043.25 10.9788H1048.75V5.47908H1043.25ZM1049.75 5.47908V10.9788H1055.25V5.47908H1049.75ZM1056.25 5.47908V10.9788H1061.75V5.47908H1056.25ZM1062.75 5.47908V10.9788H1068.25V5.47908H1062.75ZM1069.25 5.47908V10.9788H1074.75V5.47908H1069.25ZM1075.75 5.47908V10.9788H1081.25V5.47908H1075.75ZM1082.25 5.47908V10.9788H1087.75V5.47908H1082.25ZM1088.75 5.47908V10.9788H1094.25V5.47908H1088.75ZM1095.25 5.47908V10.9788H1100.75V5.47908H1095.25ZM1101.75 5.47908V10.9788H1107.25V5.47908H1101.75ZM1108.25 5.47908V10.9788H1113.75V5.47908H1108.25ZM1114.75 5.47908V10.9788H1120.25V5.47908H1114.75ZM1121.25 5.47908V10.9788H1126.75V5.47908H1121.25ZM1127.75 5.47908V10.9788H1133.25V5.47908H1127.75ZM1133.25 11.9788H1127.75V17.4792H1133.25V11.9788ZM1133.25 18.4792H1127.75V23.9786H1133.25V18.4792ZM1133.25 24.9786H1127.75V30.479H1133.25V24.9786ZM1133.25 31.479H1127.75V36.9791H1133.25V31.479ZM1133.25 37.9791H1127.75V43.4789H1133.25V37.9791ZM1133.25 44.4789H1127.75V49.9791H1133.25V44.4789ZM1133.25 50.9791H1127.75V56.4788H1133.25V50.9791ZM1133.25 57.4788H1127.75V62.9789H1133.25V57.4788ZM1133.25 63.9789H1127.75V69.4791H1133.25V63.9789ZM1133.25 70.4791H1127.75V75.9786H1133.25V70.4791ZM1133.25 76.9786H1127.75V82.4789H1133.25V76.9786ZM1133.25 83.4789H1127.75V88.9788H1133.25V83.4789ZM1133.25 89.9788H1127.75V95.4788H1133.25V89.9788ZM1133.25 96.4788H1127.75V101.979H1133.25V96.4788ZM1126.75 101.979V96.4788H1121.25V101.979H1126.75ZM1120.25 101.979V96.4788H1114.75V101.979H1120.25ZM1113.75 101.979V96.4788H1108.25V101.979H1113.75ZM1107.25 101.979V96.4788H1101.75V101.979H1107.25ZM1100.75 101.979V96.4788H1095.25V101.979H1100.75ZM1094.25 101.979V96.4788H1088.75V101.979H1094.25ZM1087.75 101.979V96.4788H1082.25V101.979H1087.75ZM1081.25 101.979V96.4788H1075.75V101.979H1081.25ZM1074.75 101.979V96.4788H1069.25V101.979H1074.75ZM1068.25 101.979V96.4788H1062.75V101.979H1068.25ZM1061.75 101.979V96.4788H1056.25V101.979H1061.75ZM1055.25 101.979V96.4788H1049.75V101.979H1055.25ZM1048.75 101.979V96.4788H1043.25L1043.25 101.979H1048.75ZM1042.25 101.979L1042.25 96.4788H1036.75V101.979H1042.25ZM1036.75 95.4788H1042.25V89.9788H1036.75L1036.75 95.4788ZM1036.75 88.9788H1042.25V83.4789H1036.75V88.9788ZM1036.75 82.4789H1042.25V76.9786H1036.75L1036.75 82.4789ZM1036.75 75.9786H1042.25L1042.25 70.4791H1036.75V75.9786ZM1036.75 69.4791H1042.25V63.9789H1036.75V69.4791ZM1036.75 62.9789H1042.25V57.4788H1036.75L1036.75 62.9789ZM1036.75 56.4788H1042.25L1042.25 50.9791H1036.75V56.4788ZM1036.75 49.9791H1042.25V44.4789H1036.75L1036.75 49.9791ZM1036.75 43.4789H1042.25V37.9791H1036.75V43.4789ZM1036.75 36.9791H1042.25L1042.25 31.479H1036.75V36.9791ZM1036.75 30.479H1042.25V24.9786H1036.75L1036.75 30.479ZM1036.75 23.9786H1042.25V18.4792H1036.75V23.9786ZM1036.75 17.4792H1042.25V11.9788H1036.75L1036.75 17.4792ZM1043.25 11.9788V17.4792H1048.75L1048.75 11.9788H1043.25ZM1049.75 11.9788L1049.75 17.4792H1055.25L1055.25 11.9788H1049.75ZM1056.25 11.9788L1056.25 17.4792H1061.75V11.9788H1056.25ZM1062.75 11.9788V17.4792H1068.25V11.9788H1062.75ZM1069.25 11.9788V17.4792H1074.75V11.9788H1069.25ZM1075.75 11.9788V17.4792H1081.25V11.9788H1075.75ZM1082.25 11.9788V17.4792H1087.75V11.9788H1082.25ZM1088.75 11.9788V17.4792H1094.25V11.9788H1088.75ZM1095.25 11.9788V17.4792H1100.75V11.9788H1095.25ZM1101.75 11.9788V17.4792H1107.25V11.9788H1101.75ZM1108.25 11.9788V17.4792H1113.75V11.9788H1108.25ZM1114.75 11.9788V17.4792H1120.25V11.9788H1114.75ZM1121.25 11.9788V17.4792H1126.75V11.9788H1121.25ZM1126.75 18.4792H1121.25V23.9786H1126.75V18.4792ZM1126.75 24.9786H1121.25V30.479H1126.75V24.9786ZM1126.75 31.479H1121.25V36.9791H1126.75V31.479ZM1126.75 37.9791H1121.25V43.4789H1126.75V37.9791ZM1126.75 44.4789H1121.25V49.9791H1126.75V44.4789ZM1126.75 50.9791H1121.25V56.4788H1126.75V50.9791ZM1126.75 57.4788H1121.25V62.9789H1126.75V57.4788ZM1126.75 63.9789H1121.25V69.4791H1126.75V63.9789ZM1126.75 70.4791H1121.25V75.9786H1126.75V70.4791ZM1126.75 76.9786H1121.25V82.4789H1126.75V76.9786ZM1126.75 83.4789H1121.25V88.9788H1126.75V83.4789ZM1126.75 89.9788H1121.25V95.4788H1126.75V89.9788ZM1120.25 95.4788V89.9788H1114.75V95.4788H1120.25ZM1113.75 95.4788V89.9788H1108.25V95.4788H1113.75ZM1107.25 95.4788V89.9788H1101.75V95.4788H1107.25ZM1100.75 95.4788V89.9788H1095.25V95.4788H1100.75ZM1094.25 95.4788V89.9788H1088.75V95.4788H1094.25ZM1087.75 95.4788V89.9788H1082.25V95.4788H1087.75ZM1081.25 95.4788V89.9788H1075.75V95.4788H1081.25ZM1074.75 95.4788V89.9788H1069.25V95.4788H1074.75ZM1068.25 95.4788V89.9788H1062.75V95.4788H1068.25ZM1061.75 95.4788V89.9788H1056.25L1056.25 95.4788H1061.75ZM1055.25 95.4788L1055.25 89.9788H1049.75L1049.75 95.4788H1055.25ZM1048.75 95.4788L1048.75 89.9788H1043.25V95.4788H1048.75ZM1043.25 88.9788H1048.75V83.4789H1043.25V88.9788ZM1043.25 82.4789H1048.75V76.9786H1043.25V82.4789ZM1043.25 75.9786H1048.75V70.4791H1043.25L1043.25 75.9786ZM1043.25 69.4791H1048.75V63.9789H1043.25V69.4791ZM1043.25 62.9789H1048.75V57.4788H1043.25V62.9789ZM1043.25 56.4788H1048.75L1048.75 50.9791H1043.25L1043.25 56.4788ZM1043.25 49.9791H1048.75V44.4789H1043.25V49.9791ZM1043.25 43.4789H1048.75V37.9791H1043.25V43.4789ZM1043.25 36.9791H1048.75V31.479H1043.25L1043.25 36.9791ZM1043.25 30.479H1048.75V24.9786H1043.25V30.479ZM1043.25 23.9786H1048.75V18.4792H1043.25V23.9786ZM1049.75 18.4792V23.9786H1055.25V18.4792H1049.75ZM1056.25 18.4792V23.9786H1061.75V18.4792H1056.25ZM1062.75 18.4792V23.9786H1068.25V18.4792H1062.75ZM1069.25 18.4792V23.9786H1074.75V18.4792H1069.25ZM1075.75 18.4792V23.9786H1081.25V18.4792H1075.75ZM1082.25 18.4792V23.9786H1087.75V18.4792H1082.25ZM1088.75 18.4792V23.9786H1094.25V18.4792H1088.75ZM1095.25 18.4792V23.9786H1100.75V18.4792H1095.25ZM1101.75 18.4792V23.9786H1107.25V18.4792H1101.75ZM1108.25 18.4792V23.9786H1113.75V18.4792H1108.25ZM1114.75 18.4792V23.9786H1120.25V18.4792H1114.75ZM1120.25 24.9786H1114.75V30.479H1120.25V24.9786ZM1120.25 31.479H1114.75V36.9791H1120.25V31.479ZM1120.25 37.9791H1114.75V43.4789H1120.25V37.9791ZM1120.25 44.4789H1114.75V49.9791H1120.25V44.4789ZM1120.25 50.9791H1114.75V56.4788H1120.25V50.9791ZM1120.25 57.4788H1114.75V62.9789H1120.25V57.4788ZM1120.25 63.9789H1114.75V69.4791H1120.25V63.9789ZM1120.25 70.4791H1114.75V75.9786H1120.25V70.4791ZM1120.25 76.9786H1114.75V82.4789H1120.25V76.9786ZM1120.25 83.4789H1114.75V88.9788H1120.25V83.4789ZM1113.75 88.9788V83.4789H1108.25V88.9788H1113.75ZM1107.25 88.9788V83.4789H1101.75V88.9788H1107.25ZM1100.75 88.9788V83.4789H1095.25V88.9788H1100.75ZM1094.25 88.9788V83.4789H1088.75V88.9788H1094.25ZM1087.75 88.9788V83.4789H1082.25V88.9788H1087.75ZM1081.25 88.9788V83.4789H1075.75V88.9788H1081.25ZM1074.75 88.9788V83.4789H1069.25V88.9788H1074.75ZM1068.25 88.9788V83.4789H1062.75V88.9788H1068.25ZM1061.75 88.9788V83.4789H1056.25V88.9788H1061.75ZM1055.25 88.9788V83.4789H1049.75V88.9788H1055.25ZM1049.75 82.4789H1055.25V76.9786H1049.75V82.4789ZM1049.75 75.9786H1055.25V70.4791H1049.75V75.9786ZM1049.75 69.4791H1055.25V63.9789H1049.75V69.4791ZM1049.75 62.9789H1055.25V57.4788H1049.75V62.9789ZM1049.75 56.4788H1055.25L1055.25 50.9791H1049.75L1049.75 56.4788ZM1049.75 49.9791H1055.25V44.4789H1049.75V49.9791ZM1049.75 43.4789H1055.25V37.9791H1049.75V43.4789ZM1049.75 36.9791H1055.25V31.479H1049.75V36.9791ZM1049.75 30.479H1055.25V24.9786H1049.75V30.479ZM1056.25 24.9786V30.479H1061.75V24.9786H1056.25ZM1062.75 24.9786V30.479H1068.25V24.9786H1062.75ZM1069.25 24.9786V30.479H1074.75V24.9786H1069.25ZM1075.75 24.9786V30.479H1081.25V24.9786H1075.75ZM1082.25 24.9786V30.479H1087.75V24.9786H1082.25ZM1088.75 24.9786V30.479H1094.25V24.9786H1088.75ZM1095.25 24.9786V30.479H1100.75V24.9786H1095.25ZM1101.75 24.9786V30.479H1107.25V24.9786H1101.75ZM1108.25 24.9786V30.479H1113.75V24.9786H1108.25ZM1113.75 31.479H1108.25V36.9791H1113.75V31.479ZM1113.75 37.9791H1108.25V43.4789H1113.75V37.9791ZM1113.75 44.4789H1108.25V49.9791H1113.75V44.4789ZM1113.75 50.9791H1108.25V56.4788H1113.75V50.9791ZM1113.75 57.4788H1108.25V62.9789H1113.75V57.4788ZM1113.75 63.9789H1108.25V69.4791H1113.75V63.9789ZM1113.75 70.4791H1108.25V75.9786H1113.75V70.4791ZM1113.75 76.9786H1108.25V82.4789H1113.75V76.9786ZM1107.25 82.4789V76.9786H1101.75V82.4789H1107.25ZM1100.75 82.4789V76.9786H1095.25V82.4789H1100.75ZM1094.25 82.4789V76.9786H1088.75V82.4789H1094.25ZM1087.75 82.4789V76.9786H1082.25V82.4789H1087.75ZM1081.25 82.4789V76.9786H1075.75V82.4789H1081.25ZM1074.75 82.4789V76.9786H1069.25V82.4789H1074.75ZM1068.25 82.4789V76.9786H1062.75V82.4789H1068.25ZM1061.75 82.4789V76.9786H1056.25V82.4789H1061.75ZM1056.25 75.9786H1061.75V70.4791H1056.25V75.9786ZM1056.25 69.4791H1061.75V63.9789H1056.25V69.4791ZM1056.25 62.9789H1061.75V57.4788H1056.25V62.9789ZM1056.25 56.4788H1061.75L1061.75 50.9791H1056.25L1056.25 56.4788ZM1056.25 49.9791H1061.75V44.4789H1056.25V49.9791ZM1056.25 43.4789H1061.75V37.9791H1056.25V43.4789ZM1056.25 36.9791H1061.75V31.479H1056.25V36.9791ZM1062.75 31.479V36.9791H1068.25V31.479H1062.75ZM1069.25 31.479V36.9791H1074.75V31.479H1069.25ZM1075.75 31.479V36.9791H1081.25V31.479H1075.75ZM1082.25 31.479V36.9791H1087.75V31.479H1082.25ZM1088.75 31.479V36.9791H1094.25V31.479H1088.75ZM1095.25 31.479V36.9791H1100.75V31.479H1095.25ZM1101.75 31.479V36.9791H1107.25V31.479H1101.75ZM1107.25 37.9791H1101.75V43.4789H1107.25V37.9791ZM1107.25 44.4789H1101.75V49.9791H1107.25V44.4789ZM1107.25 50.9791H1101.75V56.4788H1107.25V50.9791ZM1107.25 57.4788H1101.75V62.9789H1107.25V57.4788ZM1107.25 63.9789H1101.75V69.4791H1107.25V63.9789ZM1107.25 70.4791H1101.75V75.9786H1107.25V70.4791ZM1100.75 75.9786V70.4791H1095.25V75.9786H1100.75ZM1094.25 75.9786V70.4791H1088.75V75.9786H1094.25ZM1087.75 75.9786V70.4791H1082.25V75.9786H1087.75ZM1081.25 75.9786V70.4791H1075.75V75.9786H1081.25ZM1074.75 75.9786V70.4791H1069.25V75.9786H1074.75ZM1068.25 75.9786V70.4791H1062.75V75.9786H1068.25ZM1062.75 69.4791H1068.25V63.9789H1062.75V69.4791ZM1062.75 62.9789H1068.25V57.4788H1062.75V62.9789ZM1062.75 56.4788H1068.25L1068.25 50.9791H1062.75L1062.75 56.4788ZM1062.75 49.9791H1068.25V44.4789H1062.75V49.9791ZM1062.75 43.4789H1068.25V37.9791H1062.75V43.4789ZM1069.25 37.9791V43.4789H1074.75V37.9791H1069.25ZM1075.75 37.9791V43.4789H1081.25V37.9791H1075.75ZM1082.25 37.9791V43.4789H1087.75V37.9791H1082.25ZM1088.75 37.9791V43.4789H1094.25V37.9791H1088.75ZM1095.25 37.9791V43.4789H1100.75V37.9791H1095.25ZM1100.75 44.4789H1095.25V49.9791H1100.75V44.4789ZM1100.75 50.9791H1095.25V56.4788H1100.75V50.9791ZM1100.75 57.4788H1095.25V62.9789H1100.75V57.4788ZM1100.75 63.9789H1095.25V69.4791H1100.75V63.9789ZM1094.25 69.4791V63.9789H1088.75V69.4791H1094.25ZM1087.75 69.4791V63.9789H1082.25V69.4791H1087.75ZM1081.25 69.4791V63.9789H1075.75V69.4791H1081.25ZM1074.75 69.4791V63.9789H1069.25V69.4791H1074.75ZM1069.25 62.9789H1074.75V57.4788H1069.25V62.9789ZM1069.25 56.4788H1074.75L1074.75 50.9791H1069.25L1069.25 56.4788ZM1069.25 49.9791H1074.75V44.4789H1069.25V49.9791ZM1075.75 44.4789V49.9791H1081.25V44.4789H1075.75ZM1082.25 44.4789V49.9791H1087.75V44.4789H1082.25ZM1088.75 44.4789V49.9791H1094.25V44.4789H1088.75ZM1094.25 50.9791H1088.75L1088.75 56.4788H1094.25V50.9791ZM1094.25 57.4788H1088.75V62.9789H1094.25V57.4788ZM1087.75 62.9789V57.4788H1082.25V62.9789H1087.75ZM1081.25 62.9789V57.4788H1075.75V62.9789H1081.25ZM1075.75 56.4788H1081.25L1081.25 50.9791H1075.75L1075.75 56.4788ZM1082.25 50.9791L1082.25 56.4788H1087.75L1087.75 50.9791H1082.25Z" fill="#00A3FF"/>
</g>
<circle cx="1085" cy="55.0831" r="47.25" stroke="white" stroke-opacity="0.6" stroke-width="3"/>
<circle cx="1085" cy="55.0833" r="53.0833" stroke="#00A3FF" stroke-opacity="0.3" stroke-width="4"/>
<circle cx="1085" cy="55.0833" r="53.0833" stroke="url(#paint10_linear_8775:32096)"/>
<path d="M1077.39 75.4981C1074.6 70.1495 1076.07 67.0762 1078.27 64.2708C1080.61 61.0625 1081.2 57.9893 1081.2 57.9893C1081.2 57.9893 1083.11 60.1296 1082.37 63.6051C1085.6 60.261 1086.18 54.9167 1085.74 52.9115C1093.07 57.5907 1096.3 67.8857 1092.05 75.3703C1114.63 63.6051 1097.62 46.0955 1094.69 44.2224C1095.71 46.227 1095.86 49.571 1093.81 51.1734C1090.44 39.4045 1082.08 37.1328 1082.08 37.1328C1083.11 43.1472 1078.56 49.6996 1074.16 54.6452C1074.01 52.2377 1073.87 50.6354 1072.4 48.2286C1072.11 52.6407 1068.44 56.1161 1067.42 60.5282C1066.1 66.5426 1068.44 70.8189 1077.39 75.4981Z" fill="url(#paint11_linear_8775:32096)"/>
<g filter="url(#filter1_f_8775:32096)">
<ellipse cx="699" cy="154" rx="81" ry="12" fill="#00DDFF"/>
</g>
<path d="M693 136L706.856 148H679.144L693 136Z" fill="#00DDFF"/>
<defs>
<filter id="filter0_i_8775:32096" x="1033.25" y="3.33313" width="103.5" height="103.5" filterUnits="userSpaceOnUse" color-interpolation-filters="sRGB">
<feFlood flood-opacity="0" result="BackgroundImageFix"/>
<feBlend mode="normal" in="SourceGraphic" in2="BackgroundImageFix" result="shape"/>
<feColorMatrix in="SourceAlpha" type="matrix" values="0 0 0 0 0 0 0 0 0 0 0 0 0 0 0 0 0 0 127 0" result="hardAlpha"/>
<feOffset/>
<feGaussianBlur stdDeviation="12"/>
<feComposite in2="hardAlpha" operator="arithmetic" k2="-1" k3="1"/>
<feColorMatrix type="matrix" values="0 0 0 0 0 0 0 0 0 0.639216 0 0 0 0 1 0 0 0 1 0"/>
<feBlend mode="normal" in2="shape" result="effect1_innerShadow_8775:32096"/>
</filter>
<filter id="filter1_f_8775:32096" x="593" y="117" width="212" height="74" filterUnits="userSpaceOnUse" color-interpolation-filters="sRGB">
<feFlood flood-opacity="0" result="BackgroundImageFix"/>
<feBlend mode="normal" in="SourceGraphic" in2="BackgroundImageFix" result="shape"/>
<feGaussianBlur stdDeviation="12.5" result="effect1_foregroundBlur_8775:32096"/>
</filter>
<linearGradient id="paint0_linear_8775:32096" x1="2167.52" y1="113.5" x2="-0.519744" y2="113.5" gradientUnits="userSpaceOnUse">
<stop stop-color="#101F42" stop-opacity="0"/>
<stop offset="0.276042" stop-color="#101F42" stop-opacity="0.9"/>
<stop offset="0.5" stop-color="#101F42" stop-opacity="0.9"/>
<stop offset="0.729167" stop-color="#101F42" stop-opacity="0.9"/>
<stop offset="1" stop-color="#101F42" stop-opacity="0"/>
</linearGradient>
<linearGradient id="paint1_linear_8775:32096" x1="533.069" y1="129.486" x2="1.00005" y2="129.486" gradientUnits="userSpaceOnUse">
<stop stop-color="#00A3FF"/>
<stop offset="1" stop-color="#00A3FF" stop-opacity="0"/>
</linearGradient>
<linearGradient id="paint2_linear_8775:32096" x1="1632.29" y1="129.486" x2="2168.52" y2="129.486" gradientUnits="userSpaceOnUse">
<stop stop-color="#00A3FF"/>
<stop offset="1" stop-color="#00A3FF" stop-opacity="0"/>
</linearGradient>
<linearGradient id="paint3_linear_8775:32096" x1="1226.51" y1="72.9867" x2="1227" y2="129.5" gradientUnits="userSpaceOnUse">
<stop stop-color="#00A3FF" stop-opacity="0.9"/>
<stop offset="1" stop-color="#00A3FF" stop-opacity="0"/>
</linearGradient>
<linearGradient id="paint4_linear_8775:32096" x1="1414.5" y1="72.0084" x2="1414" y2="134" gradientUnits="userSpaceOnUse">
<stop stop-color="#00A3FF" stop-opacity="0.9"/>
<stop offset="1" stop-color="#00A3FF" stop-opacity="0"/>
</linearGradient>
<linearGradient id="paint5_linear_8775:32096" x1="858.486" y1="72.9797" x2="858.486" y2="125.961" gradientUnits="userSpaceOnUse">
<stop stop-color="#00A3FF" stop-opacity="0.9"/>
<stop offset="1" stop-color="#00A3FF" stop-opacity="0"/>
</linearGradient>
<linearGradient id="paint6_linear_8775:32096" x1="653" y1="69" x2="653" y2="129" gradientUnits="userSpaceOnUse">
<stop offset="0.213542" stop-color="white"/>
<stop offset="0.994792" stop-color="#00E0FF" stop-opacity="0"/>
</linearGradient>
<linearGradient id="paint7_linear_8775:32096" x1="731" y1="77" x2="731" y2="131" gradientUnits="userSpaceOnUse">
<stop stop-color="white"/>
<stop offset="1" stop-color="#01E1FF"/>
</linearGradient>
<linearGradient id="paint8_linear_8775:32096" x1="1085" y1="6.33313" x2="1085" y2="166.617" gradientUnits="userSpaceOnUse">
<stop stop-color="#0B2D51"/>
<stop offset="0.8125" stop-color="#0B2D51"/>
</linearGradient>
<linearGradient id="paint9_linear_8775:32096" x1="1085" y1="6.33313" x2="1085" y2="103.833" gradientUnits="userSpaceOnUse">
<stop stop-color="#1E4BB9"/>
<stop offset="1" stop-color="#002377"/>
</linearGradient>
<linearGradient id="paint10_linear_8775:32096" x1="1085" y1="2" x2="1085" y2="108.167" gradientUnits="userSpaceOnUse">
<stop stop-color="white"/>
<stop offset="1" stop-color="#00A3FF" stop-opacity="0.5"/>
</linearGradient>
<linearGradient id="paint11_linear_8775:32096" x1="1085.33" y1="37.1328" x2="1085.33" y2="75.4981" gradientUnits="userSpaceOnUse">
<stop stop-color="white"/>
<stop offset="1" stop-color="#00A3FF"/>
</linearGradient>
<clipPath id="clip0_8775:32096">
<rect width="51" height="51" fill="white" transform="translate(1201 73)"/>
</clipPath>
<clipPath id="clip1_8775:32096">
<rect width="53" height="53" fill="white" transform="translate(1388 72)"/>
</clipPath>
<clipPath id="clip2_8775:32096">
<rect width="61" height="53" fill="white" transform="translate(828 73)"/>
</clipPath>
<clipPath id="clip3_8775:32096">
<rect width="60" height="60" fill="white" transform="translate(623 69)"/>
</clipPath>
</defs>
</svg>
