<svg width="2168" height="148" viewBox="0 0 2168 148" fill="none" xmlns="http://www.w3.org/2000/svg">
<path d="M525.5 155H0V181H2167V158.5H1648L1554.32 45H1472.73L1452.46 55.5H713.499L694.791 46H613.204L525.5 155Z" fill="url(#paint0_linear_8775:32898)"/>
<path fill-rule="evenodd" clip-rule="evenodd" d="M1139.99 55.176H1453.42H1453.69L1453.95 55.0812L1474.06 47.573H1554.08L1622.98 130.718L1625.29 128.803L1555.94 45.1159L1555.49 44.573H1554.79H1473.79H1473.52L1473.26 44.6678L1453.15 52.176H1139.87C1139.94 53.169 1139.98 54.1692 1139.99 55.176ZM1030.13 52.176H713.174L694.871 44.6848L694.598 44.573H694.303H613.506H612.788L612.338 45.1324L544.967 128.82L547.304 130.701L614.224 47.573H694.008L712.311 55.0642L712.584 55.176H712.879H1030.01C1030.02 54.1692 1030.06 53.169 1030.13 52.176Z" fill="#00A3FF"/>
<path d="M571 81.4791L531.8 129.76L1.00001 129.76" stroke="url(#paint1_linear_8775:32898)" stroke-width="3"/>
<path d="M1598 81.4791L1637.2 129.76L2168 129.76" stroke="url(#paint2_linear_8775:32898)" stroke-width="3"/>
<g clip-path="url(#clip0_8775:32898)">
<path d="M1236.29 102.259C1236.11 102.074 1235.9 101.927 1235.66 101.826C1235.42 101.726 1235.16 101.674 1234.91 101.674C1234.65 101.674 1234.39 101.726 1234.16 101.826C1233.92 101.927 1233.7 102.074 1233.52 102.259L1232.04 103.791L1229.54 101.219L1233.05 97.2781C1235.46 98.6786 1238.27 99.2342 1241.03 98.8567C1243.79 98.4791 1246.35 97.1901 1248.29 95.1942C1250.08 93.3518 1251.29 91.0282 1251.78 88.5075C1252.27 85.9869 1252.01 83.3783 1251.04 81.0007L1242.79 89.3168L1235.84 82.2619L1244.08 73.9508C1241.75 72.9818 1239.19 72.7362 1236.72 73.2459C1234.25 73.7556 1232 74.997 1230.25 76.8082C1228.1 79.0301 1226.81 81.9329 1226.59 85.0114C1226.36 88.0899 1227.23 91.1493 1229.02 93.6571L1225.28 96.8594L1212.43 83.6906L1212.38 79.6754L1204.74 74.9016L1201 78.7296L1205.64 86.3559H1209.66L1222.36 99.3769L1203.23 115.748C1202.49 116.507 1202.08 117.523 1202.08 118.581C1202.08 119.639 1202.49 120.655 1203.23 121.413L1204.63 122.827C1204.99 123.199 1205.42 123.494 1205.9 123.696C1206.37 123.898 1206.88 124.001 1207.4 124.001C1207.92 124.001 1208.43 123.898 1208.91 123.696C1209.38 123.494 1209.81 123.199 1210.17 122.827L1226.97 104.082L1229.36 106.545L1227.98 107.944C1227.61 108.324 1227.4 108.832 1227.4 109.361C1227.4 109.889 1227.61 110.397 1227.98 110.777L1240.12 123.31C1240.3 123.495 1240.52 123.642 1240.76 123.743C1240.99 123.843 1241.25 123.895 1241.51 123.895C1241.77 123.895 1242.02 123.843 1242.26 123.743C1242.5 123.642 1242.71 123.495 1242.89 123.31L1248.44 117.645C1248.81 117.264 1249.01 116.757 1249.01 116.228C1249.01 115.7 1248.81 115.192 1248.44 114.812L1236.29 102.259ZM1207.83 120.576C1207.65 120.762 1207.44 120.909 1207.2 121.01C1206.96 121.111 1206.7 121.163 1206.45 121.163C1206.19 121.163 1205.93 121.111 1205.69 121.01C1205.45 120.909 1205.24 120.762 1205.06 120.576C1204.69 120.196 1204.49 119.688 1204.49 119.16C1204.49 118.631 1204.69 118.123 1205.06 117.743C1205.24 117.559 1205.46 117.412 1205.69 117.312C1205.93 117.212 1206.19 117.16 1206.45 117.16C1206.7 117.16 1206.96 117.212 1207.2 117.312C1207.44 117.412 1207.65 117.559 1207.83 117.743C1208.2 118.123 1208.4 118.631 1208.4 119.16C1208.4 119.688 1208.2 120.196 1207.83 120.576Z" fill="url(#paint3_linear_8775:32898)"/>
</g>
<path d="M1283.26 87.984H1271.87V86.32H1296.42V87.984H1284.99V109.776H1297.79V111.504H1270.21V109.776H1283.26V87.984ZM1315.39 85.232H1328V94.096H1315.39V85.232ZM1326.34 92.528V86.8H1317.09V92.528H1326.34ZM1313.89 97.456H1329.63V99.056H1322.43V103.792H1328.67V105.36H1322.43V110.288H1330.4V111.92H1312.61V110.288H1320.7V105.36H1314.66V103.792H1320.7V99.056H1313.89V97.456ZM1301.95 92.912H1306.82V87.664C1305.47 87.8987 1303.96 88.1013 1302.27 88.272L1301.92 86.608C1306.08 86.224 1309.65 85.5307 1312.64 84.528L1313.25 86.16C1311.63 86.6507 1310.03 87.056 1308.45 87.376V92.912H1312.96V94.544H1308.45V96.496C1310.07 98.1173 1311.66 99.9093 1313.22 101.872L1312.22 103.344C1310.71 101.04 1309.45 99.28 1308.45 98.064V113.008H1306.82V97.712C1305.69 101.125 1304.07 104.229 1301.98 107.024L1301.22 105.136C1303.82 102 1305.62 98.4693 1306.62 94.544H1301.95V92.912Z" fill="#00A3FF"/>
<g clip-path="url(#clip1_8775:32898)">
<path d="M1440.86 114.085C1440.57 112.608 1439.77 111.277 1438.62 110.317C1437.46 109.357 1436 108.828 1434.5 108.819C1434 108.817 1433.5 108.873 1433.02 108.986V91.778L1418.78 83.4092C1420.03 82.1849 1420.76 80.5208 1420.8 78.7719C1420.83 77.023 1420.19 75.3279 1419 74.0482C1418.41 73.4233 1417.71 72.9211 1416.93 72.5712C1416.15 72.2212 1415.31 72.0305 1414.45 72.0102C1413.6 71.9899 1412.75 72.1404 1411.95 72.453C1411.16 72.7655 1410.43 73.2337 1409.82 73.8302C1408.55 75.0747 1407.83 76.7727 1407.81 78.5508C1407.79 80.3289 1408.48 82.0414 1409.72 83.3117L1395.32 91.7722V109.519C1394.47 109.414 1393.6 109.48 1392.77 109.712C1391.94 109.944 1391.17 110.338 1390.49 110.872C1389.82 111.405 1389.25 112.067 1388.83 112.819C1388.41 113.572 1388.15 114.399 1388.05 115.255C1387.82 116.981 1388.29 118.728 1389.34 120.114C1390.39 121.501 1391.95 122.414 1393.68 122.654C1395.35 122.86 1397.04 122.407 1398.39 121.392C1399.74 120.376 1400.64 118.878 1400.91 117.211L1414.16 125.006L1428.12 116.804C1428.28 117.648 1428.61 118.45 1429.09 119.166C1429.57 119.881 1430.18 120.494 1430.9 120.971C1431.61 121.447 1432.42 121.777 1433.26 121.941C1434.1 122.105 1434.97 122.1 1435.81 121.926C1437.52 121.55 1439 120.515 1439.95 119.047C1440.89 117.579 1441.22 115.798 1440.86 114.091V114.085ZM1399.22 94.0609L1412.21 86.4378V90.7512L1402.91 96.2061V106.255L1399.24 108.418V94.0609H1399.22ZM1414.2 120.412L1400.43 112.324L1404.11 110.162L1414.2 116.081L1424.14 110.253L1427.81 112.416L1414.2 120.412ZM1429.11 108.567L1425.44 106.41V96.2176L1416.11 90.7512V86.4263L1429.11 94.0551V108.567Z" fill="url(#paint4_linear_8775:32898)"/>
</g>
<path d="M1460.42 84.528C1462.66 86.064 1464.52 87.5787 1465.99 89.072L1464.78 90.256C1463.39 88.8053 1461.54 87.28 1459.24 85.68L1460.42 84.528ZM1459.94 92.048C1462.06 93.584 1463.85 95.1413 1465.32 96.72L1464.1 97.936C1462.87 96.4853 1461.09 94.9067 1458.76 93.2L1459.94 92.048ZM1465.86 101.328C1464.33 105.232 1462.53 109.04 1460.46 112.752L1458.79 112.048C1460.97 108.315 1462.81 104.539 1464.33 100.72L1465.86 101.328ZM1472.49 96.368H1481.38V106.64H1472.49V96.368ZM1479.78 105.104V97.936H1474.06V105.104H1479.78ZM1479.14 112.912L1478.66 111.216L1482.63 111.28C1483.81 111.28 1484.39 110.843 1484.39 109.968V86.992H1469.19V113.008H1467.5V85.328H1486.09V110.32C1486.09 112.048 1485.13 112.912 1483.21 112.912H1479.14ZM1471.53 91.024H1482.38V92.656H1471.53V91.024ZM1493.77 103.248H1515.78V104.784H1505.77V110.864C1505.77 112.357 1505.04 113.104 1503.59 113.104H1500.3L1499.94 111.472C1501.35 111.557 1502.37 111.6 1502.98 111.6C1503.69 111.6 1504.04 111.216 1504.04 110.448V104.784H1493.77V103.248ZM1496.33 93.68C1495.67 94.2133 1494.99 94.7253 1494.31 95.216C1495.31 96.3467 1496.19 97.4773 1496.94 98.608C1497.73 98.0107 1498.48 97.36 1499.21 96.656C1498.38 95.696 1497.42 94.704 1496.33 93.68ZM1500.1 95.664C1500.98 94.6613 1501.78 93.52 1502.5 92.24H1497.9L1497.29 92.848C1498.38 93.808 1499.31 94.7467 1500.1 95.664ZM1504.36 90.896V92.048C1501.54 97.488 1497.21 101.2 1491.37 103.184L1490.6 101.808C1492.58 101.147 1494.34 100.325 1495.88 99.344C1495.01 98.064 1494.12 96.9227 1493.22 95.92C1492.82 96.1973 1492.35 96.4853 1491.82 96.784L1490.86 95.664C1494.27 93.808 1496.98 91.472 1498.98 88.656L1500.58 89.008C1500.11 89.712 1499.63 90.3413 1499.14 90.896H1504.36ZM1509.9 106.352C1512.95 107.76 1515.73 109.456 1518.25 111.44L1517.29 112.88C1514.58 110.683 1511.82 108.955 1509 107.696L1509.9 106.352ZM1500.1 106.928C1498.99 108.272 1497.9 109.36 1496.81 110.192C1495.55 111.173 1494 112.069 1492.17 112.88L1491.24 111.472C1492.99 110.811 1494.45 110.021 1495.62 109.104C1496.8 108.187 1497.83 107.173 1498.73 106.064L1500.1 106.928ZM1508.46 92.24C1509.01 93.52 1509.76 94.7253 1510.7 95.856C1511.76 94.7893 1512.74 93.584 1513.64 92.24H1508.46ZM1511.72 96.976C1513.66 98.9387 1516.16 100.464 1519.21 101.552L1518.41 102.992C1515.51 101.925 1513.07 100.475 1511.11 98.64V100.016H1499.59V98.512H1510.98C1508.47 96.1013 1506.79 93.0827 1505.96 89.456L1507.37 88.944C1507.47 89.4133 1507.65 90.0213 1507.88 90.768H1515.56V92.016C1514.45 93.872 1513.17 95.5253 1511.72 96.976ZM1517.74 86.352V92.016H1516.07V87.92H1494.12V91.92H1492.46V86.352H1504.55C1504.13 85.4133 1503.67 84.6133 1503.18 83.952L1505.03 83.664C1505.54 84.5387 1505.97 85.4347 1506.31 86.352H1517.74Z" fill="#00A3FF"/>
<g clip-path="url(#clip2_8775:32898)">
<path d="M870.702 73C874.232 72.9996 877.688 73.9928 880.652 75.8599C883.615 77.727 885.96 80.3881 887.404 83.5225C888.847 86.6568 889.328 90.1304 888.787 93.5243C888.246 96.9182 886.707 100.087 884.356 102.65L861.73 124.658C860.872 125.492 859.708 125.961 858.495 125.961C857.281 125.961 856.117 125.492 855.259 124.658L832.633 102.65C829.513 99.2595 827.846 94.8355 827.975 90.2868C828.104 85.7382 830.02 81.4105 833.328 78.1929C836.636 74.9753 841.085 73.1122 845.762 72.9865C850.438 72.8608 854.986 74.4821 858.472 77.5171C861.822 74.6065 866.159 73.0001 870.651 73.0055L870.702 73ZM868.19 96.7298C867.627 96.7267 867.083 96.9222 866.657 97.28L859.581 104.163L859.434 104.289C859.14 104.511 858.773 104.621 858.402 104.598C858.031 104.574 857.682 104.42 857.42 104.163L850.344 97.28C850.019 96.9828 849.611 96.7856 849.172 96.7131C848.732 96.6406 848.28 96.6959 847.873 96.8723C847.466 97.0486 847.121 97.338 846.883 97.7042C846.644 98.0704 846.522 98.497 846.531 98.9306C846.529 99.476 846.73 100.004 847.097 100.416L855.254 108.35C856.112 109.184 857.276 109.653 858.489 109.653C859.703 109.653 860.866 109.184 861.725 108.35L869.7 100.609L869.87 100.444L869.983 100.306C870.251 99.9791 870.417 99.5849 870.463 99.1694C870.508 98.7539 870.431 98.3344 870.241 97.9599C870.05 97.5854 869.754 97.2714 869.387 97.0545C869.02 96.8376 868.597 96.7269 868.167 96.7353L868.19 96.7298Z" fill="url(#paint5_linear_8775:32898)"/>
</g>
<path d="M910.568 95.544V101.368H916.264V95.544H910.568ZM916.264 93.976V88.088H910.568V93.976H916.264ZM910.536 103C910.387 107.501 909.661 111.224 908.36 114.168L907.016 112.984C908.317 109.955 908.979 106.157 909 101.592V86.456H917.896V111.352C917.896 113.144 917.064 114.04 915.4 114.04H912.84L912.424 112.504C913.619 112.547 914.44 112.568 914.888 112.568C915.805 112.568 916.264 111.971 916.264 110.776V103H910.536ZM922.568 99.832V114.136H920.936V86.456H933.544C933.544 90.232 933.352 92.7493 932.968 94.008C932.627 95.288 931.432 95.928 929.384 95.928H926.92L926.44 94.424H928.584C929.416 94.424 930.035 94.36 930.44 94.232C930.845 94.104 931.155 93.784 931.368 93.272C931.645 92.3973 931.795 90.6587 931.816 88.056H922.568V98.264H933.544V99.736C932.861 103.213 931.731 106.125 930.152 108.472C931.688 110.008 933.523 111.373 935.656 112.568L934.824 114.008C932.563 112.707 930.685 111.299 929.192 109.784C927.763 111.533 926.035 112.952 924.008 114.04L923.112 112.664C925.096 111.533 926.739 110.168 928.04 108.568C925.864 106.008 924.392 103.096 923.624 99.832H922.568ZM925.128 99.832C925.832 102.584 927.123 105.059 929 107.256C930.365 105.144 931.357 102.669 931.976 99.832H925.128ZM950.088 85.08C949.725 85.9333 949.267 86.8187 948.712 87.736H962.888V89.144C960.755 91.6187 958.131 93.7093 955.016 95.416C958.728 97.08 962.909 98.168 967.56 98.68L966.792 100.312C961.693 99.7147 957.139 98.4027 953.128 96.376C949.181 98.1893 944.552 99.512 939.24 100.344L938.44 98.744C943.347 98.0613 947.635 96.9413 951.304 95.384C949.277 94.168 947.421 92.8133 945.736 91.32C944.435 92.536 942.995 93.6027 941.416 94.52L940.36 93.144C944.285 90.904 946.941 88.1307 948.328 84.824L950.088 85.08ZM953.16 94.52C955.976 93.0907 958.397 91.3733 960.424 89.368H947.528C947.229 89.7093 947.016 89.9653 946.888 90.136C948.744 91.8213 950.835 93.2827 953.16 94.52ZM953.128 98.936C953.128 100.259 953.011 101.56 952.776 102.84H964.168C964.104 108.131 963.613 111.277 962.696 112.28C961.757 113.325 960.136 113.848 957.832 113.848C956.872 113.848 955.699 113.816 954.312 113.752L953.864 112.152C955.784 112.237 956.979 112.28 957.448 112.28C959.581 112.237 960.915 111.811 961.448 111C961.981 110.147 962.312 107.949 962.44 104.408H952.392C952.051 105.432 951.677 106.307 951.272 107.032C949.565 109.912 945.811 112.28 940.008 114.136L938.856 112.76C944.104 111.203 947.624 109.197 949.416 106.744C949.821 106.083 950.195 105.304 950.536 104.408H940.648V102.84H951.016C951.293 101.517 951.432 100.216 951.432 98.936H953.128Z" fill="#00A3FF"/>
<g clip-path="url(#clip3_8775:32898)">
<path d="M870.702 73C874.232 72.9996 877.688 73.9928 880.652 75.8599C883.615 77.727 885.96 80.3881 887.404 83.5225C888.847 86.6568 889.328 90.1304 888.787 93.5243C888.246 96.9182 886.707 100.087 884.356 102.65L861.73 124.658C860.872 125.492 859.708 125.961 858.495 125.961C857.281 125.961 856.117 125.492 855.259 124.658L832.633 102.65C829.513 99.2595 827.846 94.8355 827.975 90.2868C828.104 85.7382 830.02 81.4105 833.328 78.1929C836.636 74.9753 841.085 73.1122 845.762 72.9865C850.438 72.8608 854.986 74.4821 858.472 77.5171C861.822 74.6065 866.159 73.0001 870.651 73.0055L870.702 73ZM868.19 96.7298C867.627 96.7267 867.083 96.9222 866.657 97.28L859.581 104.163L859.434 104.289C859.14 104.511 858.773 104.621 858.402 104.598C858.031 104.574 857.682 104.42 857.42 104.163L850.344 97.28C850.019 96.9828 849.611 96.7856 849.172 96.7131C848.732 96.6406 848.28 96.6959 847.873 96.8723C847.466 97.0486 847.121 97.338 846.883 97.7042C846.644 98.0704 846.522 98.497 846.531 98.9306C846.529 99.476 846.73 100.004 847.097 100.416L855.254 108.35C856.112 109.184 857.276 109.653 858.489 109.653C859.703 109.653 860.866 109.184 861.725 108.35L869.7 100.609L869.87 100.444L869.983 100.306C870.251 99.9791 870.417 99.5849 870.463 99.1694C870.508 98.7539 870.431 98.3344 870.241 97.9599C870.05 97.5854 869.754 97.2714 869.387 97.0545C869.02 96.8376 868.597 96.7269 868.167 96.7353L868.19 96.7298Z" fill="url(#paint6_linear_8775:32898)"/>
</g>
<path d="M911.272 96.248H915.464V100.664H911.272V96.248ZM915.464 93.272H911.272V88.792H915.464V93.272ZM911.208 103.672H915.464V109.752C915.464 110.872 915.144 111.448 914.504 111.448C913.736 111.448 912.936 111.384 912.072 111.32L912.872 114.232H915.432C917.48 114.232 918.504 113.08 918.504 110.84V85.784H908.296V101.656C908.264 105.88 907.624 109.368 906.344 112.12L908.872 114.424C910.184 111.576 910.952 107.992 911.208 103.672ZM923.592 100.504H923.848C924.52 103.416 925.768 106.04 927.56 108.376C926.44 109.624 925.128 110.68 923.592 111.576V100.504ZM923.592 111.832L925.192 114.328C926.92 113.4 928.456 112.216 929.736 110.808C931.016 112.056 932.552 113.208 934.344 114.296L935.976 111.448C934.344 110.488 932.904 109.4 931.624 108.184C932.904 106.008 933.832 103.384 934.376 100.344V97.56H923.592V88.792H930.888C930.824 90.808 930.696 92.056 930.536 92.568C930.344 93.016 930.12 93.272 929.8 93.368C929.512 93.432 929.032 93.496 928.36 93.496C927.496 93.496 926.792 93.464 926.28 93.464L927.176 96.312H929.864C931.912 96.312 933.16 95.608 933.544 94.264C933.928 92.856 934.152 90.008 934.152 85.784H920.456V114.36H923.592V111.832ZM926.696 100.504H931.432C930.952 102.456 930.28 104.216 929.416 105.752C928.2 104.184 927.304 102.424 926.696 100.504ZM947.432 84.568C946.152 87.64 943.656 90.232 939.944 92.344L941.96 95C943.176 94.232 944.328 93.432 945.384 92.568C946.6 93.56 947.912 94.488 949.32 95.352C946.056 96.504 942.344 97.368 938.184 97.88L939.72 101.016C944.776 100.248 949.192 99 953 97.304C956.968 99.16 961.416 100.344 966.376 100.92L967.88 97.816C963.784 97.432 960.04 96.632 956.68 95.416C959.304 93.88 961.544 92.024 963.432 89.848V87.16H949.832C950.184 86.52 950.504 85.816 950.824 85.08L947.432 84.568ZM952.968 93.816C951.048 92.856 949.256 91.704 947.592 90.36L947.656 90.296H958.472C956.84 91.64 955.016 92.792 952.968 93.816ZM950.536 99.128C950.504 100.216 950.408 101.24 950.216 102.232H940.424V105.24H949.192C949 105.56 948.808 105.912 948.584 106.264C947.016 108.408 943.624 110.232 938.44 111.736L940.648 114.456C946.6 112.536 950.344 110.168 951.88 107.32C952.264 106.68 952.584 105.976 952.84 105.24H961.224C961.16 107.896 960.904 109.528 960.488 110.168C960.104 110.776 959.176 111.096 957.672 111.128C956.584 111.096 955.208 111.032 953.512 110.936L954.344 113.944C955.944 114.072 957.288 114.136 958.408 114.136C960.648 114.136 962.216 113.56 963.112 112.44C964.008 111.32 964.488 107.928 964.552 102.232H953.608C953.736 101.272 953.832 100.216 953.832 99.128H950.536Z" fill="url(#paint7_linear_8775:32898)"/>
<g clip-path="url(#clip4_8775:32898)">
<path d="M653 69C647.067 69 641.266 70.7595 636.333 74.0559C631.399 77.3524 627.554 82.0377 625.284 87.5195C623.013 93.0013 622.419 99.0333 623.576 104.853C624.734 110.672 627.591 116.018 631.787 120.213C635.982 124.409 641.328 127.266 647.147 128.424C652.967 129.581 658.999 128.987 664.481 126.716C669.962 124.446 674.648 120.601 677.944 115.667C681.241 110.734 683 104.933 683 99C682.996 91.0447 679.834 83.4163 674.209 77.7911C668.584 72.1658 660.955 69.0039 653 69ZM653 119.099C647.669 119.099 642.556 116.981 638.786 113.212C635.016 109.443 632.898 104.331 632.897 99C632.897 98.5033 632.994 98.0115 633.184 97.5526C633.375 97.0938 633.653 96.6768 634.004 96.3256C634.356 95.9744 634.772 95.6959 635.231 95.5058C635.69 95.3157 636.182 95.2179 636.679 95.2179C637.175 95.2179 637.667 95.3157 638.126 95.5058C638.585 95.6959 639.002 95.9744 639.353 96.3256C639.704 96.6768 639.983 97.0938 640.173 97.5526C640.363 98.0115 640.461 98.5033 640.461 99C640.296 103.495 641.921 107.871 644.981 111.167C648.04 114.464 652.283 116.412 656.777 116.582C661.041 116.434 665.092 114.678 668.114 111.667C671.136 108.655 672.907 104.611 673.07 100.348C673.099 100.052 673.099 99.7516 673.099 99.451C673.099 99.7516 673.07 100.052 673.07 100.348C672.716 105.432 670.449 110.194 666.725 113.673C663.001 117.153 658.097 119.091 653 119.099ZM669.326 102.782C668.829 102.784 668.336 102.688 667.877 102.498C667.417 102.309 666.999 102.03 666.648 101.679C666.296 101.327 666.017 100.909 665.828 100.45C665.639 99.9899 665.542 99.4972 665.544 99C665.709 94.5047 664.083 90.1277 661.022 86.8309C657.962 83.5341 653.718 81.5872 649.223 81.418C644.96 81.5643 640.91 83.3186 637.888 86.3283C634.866 89.338 633.095 93.3801 632.931 97.6423C632.902 97.9405 632.891 98.2399 632.897 98.5394C632.897 98.2387 632.931 97.9429 632.931 97.6423C633.292 92.4467 635.655 87.5939 639.522 84.1056C643.39 80.6172 648.46 78.7655 653.665 78.9402C658.87 79.1148 663.804 81.3023 667.429 85.0421C671.054 88.7819 673.086 93.7821 673.099 98.9903C673.101 99.4873 673.005 99.9799 672.816 100.44C672.628 100.899 672.349 101.317 671.998 101.669C671.647 102.02 671.23 102.299 670.77 102.488C670.311 102.678 669.818 102.774 669.321 102.772L669.326 102.782Z" fill="url(#paint8_linear_8775:32898)"/>
</g>
<path d="M712.056 86.36H726.424V87.96H712.056V86.36ZM709.944 94.04H728.696V95.672H718.52C716.515 100.707 714.797 104.099 713.368 105.848C718.104 105.4 721.976 104.856 724.984 104.216C724.109 102.232 723.203 100.408 722.264 98.744L723.704 98.264C725.411 101.144 726.957 104.547 728.344 108.472L726.776 108.856C726.392 107.768 726.008 106.744 725.624 105.784C721.933 106.509 717.176 107.107 711.352 107.576L710.84 106.008C712.205 105.603 714.189 102.157 716.792 95.672H709.944V94.04ZM702.904 85.592C705.037 87.2347 706.851 88.8773 708.344 90.52L707.128 91.768C705.827 90.232 704.013 88.5573 701.688 86.744L702.904 85.592ZM721.816 113.528C720.749 113.528 718.851 113.507 716.12 113.464C714.008 113.4 712.355 113.197 711.16 112.856C709.88 112.451 708.749 111.661 707.768 110.488C707.363 109.933 706.957 109.656 706.552 109.656C705.677 109.656 704.28 111.139 702.36 114.104L701.048 112.952C702.84 110.157 704.419 108.536 705.784 108.088V97.848H701.048V96.184H707.416V108.152C707.8 108.387 708.131 108.685 708.408 109.048C709.219 110.008 710.093 110.712 711.032 111.16C712.056 111.544 713.507 111.768 715.384 111.832C717.517 111.875 719.576 111.896 721.56 111.896H725.976L729.4 111.768L728.984 113.528H721.816ZM744.696 87.192H759.8V88.888H744.696V87.192ZM743.768 95.416H761.272V97.112H755.96V111.032C755.96 112.995 754.968 113.976 752.984 113.976H748.344L747.96 112.312C750.008 112.397 751.48 112.44 752.376 112.44C753.592 112.44 754.2 111.832 754.2 110.616V97.112H743.768V95.416ZM741.528 85.976C739.693 89.5813 736.835 92.7067 732.952 95.352L732.408 93.624C735.928 91.1493 738.445 88.3547 739.96 85.24L741.528 85.976ZM743.032 93.272C742.029 95.2133 740.803 97.0053 739.352 98.648V114.136H737.656V100.408C736.163 101.752 734.648 102.957 733.112 104.024L732.568 102.296C736.707 99.3947 739.683 96.1413 741.496 92.536L743.032 93.272Z" fill="#00A3FF"/>
<g filter="url(#filter0_i_8775:32898)">
<circle cx="1085" cy="55.0831" r="48.75" fill="url(#paint9_linear_8775:32898)"/>
</g>
<circle cx="1085" cy="55.0831" r="48.75" stroke="#00A3FF" stroke-opacity="0.3" stroke-width="6"/>
<mask id="mask0_8775:32898" style="mask-type:alpha" maskUnits="userSpaceOnUse" x="1033" y="3" width="104" height="104">
<circle cx="1085" cy="55.0831" r="48.75" fill="url(#paint10_linear_8775:32898)" stroke="#00DDFF" stroke-opacity="0.3" stroke-width="6"/>
</mask>
<g mask="url(#mask0_8775:32898)">
<path opacity="0.2" fill-rule="evenodd" clip-rule="evenodd" d="M1029.25 -1.02112H1029.21V-2.02112H1140.79V-1.02112H1140.75V4.47908H1140.79V5.47908H1140.75V10.9788H1140.79V11.9788H1140.75V17.4792H1140.79V18.4792H1140.75V23.9786H1140.79V24.9786H1140.75V30.479H1140.79V31.479H1140.75V36.9791H1140.79V37.9791H1140.75V43.4789H1140.79V44.4789H1140.75V49.9791H1140.79V50.9791H1140.75V56.4788H1140.79V57.4788H1140.75V62.9789H1140.79V63.9789H1140.75V69.4791H1140.79V70.4791H1140.75V75.9786H1140.79V76.9786H1140.75V82.4789H1140.79V83.4789H1140.75V88.9788H1140.79V89.9788H1140.75V95.4788H1140.79V96.4788H1140.75V101.979H1140.79V102.979H1140.75V108.479H1140.79V109.479H1029.21V108.479H1029.25L1029.25 102.979H1029.21V101.979H1029.25L1029.25 96.4788H1029.21V95.4788H1029.25L1029.25 89.9788H1029.21V88.9788H1029.25L1029.25 83.4789H1029.21V82.4789H1029.25L1029.25 76.9786H1029.21V75.9786H1029.25L1029.25 70.4791H1029.21V69.4791H1029.25L1029.25 63.9789H1029.21V62.9789H1029.25L1029.25 57.4788H1029.21V56.4788H1029.25L1029.25 50.9791H1029.21V49.9791H1029.25L1029.25 44.4789H1029.21V43.4789H1029.25L1029.25 37.9791H1029.21V36.9791H1029.25L1029.25 31.479H1029.21V30.479H1029.25L1029.25 24.9786H1029.21V23.9786H1029.25L1029.25 18.4792H1029.21V17.4792H1029.25L1029.25 11.9788H1029.21V10.9788H1029.25L1029.25 5.47908H1029.21V4.47908H1029.25L1029.25 -1.02112ZM1030.25 -1.02112L1030.25 4.47908H1035.75L1035.75 -1.02112H1030.25ZM1036.75 -1.02112L1036.75 4.47908H1042.25V-1.02112H1036.75ZM1043.25 -1.02112V4.47908H1048.75V-1.02112H1043.25ZM1049.75 -1.02112V4.47908H1055.25V-1.02112H1049.75ZM1056.25 -1.02112V4.47908H1061.75V-1.02112H1056.25ZM1062.75 -1.02112V4.47908H1068.25V-1.02112H1062.75ZM1069.25 -1.02112V4.47908H1074.75V-1.02112H1069.25ZM1075.75 -1.02112V4.47908H1081.25V-1.02112H1075.75ZM1082.25 -1.02112V4.47908H1087.75V-1.02112H1082.25ZM1088.75 -1.02112V4.47908H1094.25V-1.02112H1088.75ZM1095.25 -1.02112V4.47908H1100.75V-1.02112H1095.25ZM1101.75 -1.02112V4.47908H1107.25V-1.02112H1101.75ZM1108.25 -1.02112V4.47908H1113.75V-1.02112H1108.25ZM1114.75 -1.02112V4.47908H1120.25V-1.02112H1114.75ZM1121.25 -1.02112V4.47908H1126.75V-1.02112H1121.25ZM1127.75 -1.02112V4.47908H1133.25V-1.02112H1127.75ZM1134.25 -1.02112V4.47908H1139.75V-1.02112H1134.25ZM1139.75 5.47908H1134.25V10.9788H1139.75V5.47908ZM1139.75 11.9788H1134.25V17.4792H1139.75V11.9788ZM1139.75 18.4792H1134.25V23.9786H1139.75V18.4792ZM1139.75 24.9786H1134.25V30.479H1139.75V24.9786ZM1139.75 31.479H1134.25V36.9791H1139.75V31.479ZM1139.75 37.9791H1134.25V43.4789H1139.75V37.9791ZM1139.75 44.4789H1134.25V49.9791H1139.75V44.4789ZM1139.75 50.9791H1134.25V56.4788H1139.75V50.9791ZM1139.75 57.4788H1134.25V62.9789H1139.75V57.4788ZM1139.75 63.9789H1134.25V69.4791H1139.75V63.9789ZM1139.75 70.4791H1134.25V75.9786H1139.75V70.4791ZM1139.75 76.9786H1134.25V82.4789H1139.75V76.9786ZM1139.75 83.4789H1134.25V88.9788H1139.75V83.4789ZM1139.75 89.9788H1134.25V95.4788H1139.75V89.9788ZM1139.75 96.4788H1134.25V101.979H1139.75V96.4788ZM1139.75 102.979H1134.25V108.479H1139.75V102.979ZM1133.25 108.479V102.979H1127.75V108.479H1133.25ZM1126.75 108.479V102.979H1121.25V108.479H1126.75ZM1120.25 108.479V102.979H1114.75V108.479H1120.25ZM1113.75 108.479V102.979H1108.25V108.479H1113.75ZM1107.25 108.479V102.979H1101.75V108.479H1107.25ZM1100.75 108.479V102.979H1095.25V108.479H1100.75ZM1094.25 108.479V102.979H1088.75V108.479H1094.25ZM1087.75 108.479V102.979H1082.25V108.479H1087.75ZM1081.25 108.479V102.979H1075.75V108.479H1081.25ZM1074.75 108.479V102.979H1069.25V108.479H1074.75ZM1068.25 108.479V102.979H1062.75V108.479H1068.25ZM1061.75 108.479V102.979H1056.25V108.479H1061.75ZM1055.25 108.479V102.979H1049.75V108.479H1055.25ZM1048.75 108.479V102.979H1043.25V108.479H1048.75ZM1042.25 108.479V102.979H1036.75L1036.75 108.479H1042.25ZM1035.75 108.479L1035.75 102.979H1030.25L1030.25 108.479H1035.75ZM1030.25 101.979H1035.75V96.4788H1030.25L1030.25 101.979ZM1030.25 95.4788H1035.75L1035.75 89.9788H1030.25L1030.25 95.4788ZM1030.25 88.9788H1035.75V83.4789H1030.25L1030.25 88.9788ZM1030.25 82.4789H1035.75L1035.75 76.9786H1030.25L1030.25 82.4789ZM1030.25 75.9786H1035.75V70.4791H1030.25L1030.25 75.9786ZM1030.25 69.4791H1035.75V63.9789H1030.25L1030.25 69.4791ZM1030.25 62.9789H1035.75L1035.75 57.4788H1030.25L1030.25 62.9789ZM1030.25 56.4788H1035.75V50.9791H1030.25L1030.25 56.4788ZM1030.25 49.9791H1035.75L1035.75 44.4789H1030.25L1030.25 49.9791ZM1030.25 43.4789H1035.75V37.9791H1030.25L1030.25 43.4789ZM1030.25 36.9791H1035.75V31.479H1030.25L1030.25 36.9791ZM1030.25 30.479H1035.75L1035.75 24.9786H1030.25L1030.25 30.479ZM1030.25 23.9786H1035.75V18.4792H1030.25L1030.25 23.9786ZM1030.25 17.4792H1035.75L1035.75 11.9788H1030.25L1030.25 17.4792ZM1030.25 10.9788H1035.75V5.47908H1030.25L1030.25 10.9788ZM1036.75 5.47908V10.9788H1042.25L1042.25 5.47908H1036.75ZM1043.25 5.47908L1043.25 10.9788H1048.75V5.47908H1043.25ZM1049.75 5.47908V10.9788H1055.25V5.47908H1049.75ZM1056.25 5.47908V10.9788H1061.75V5.47908H1056.25ZM1062.75 5.47908V10.9788H1068.25V5.47908H1062.75ZM1069.25 5.47908V10.9788H1074.75V5.47908H1069.25ZM1075.75 5.47908V10.9788H1081.25V5.47908H1075.75ZM1082.25 5.47908V10.9788H1087.75V5.47908H1082.25ZM1088.75 5.47908V10.9788H1094.25V5.47908H1088.75ZM1095.25 5.47908V10.9788H1100.75V5.47908H1095.25ZM1101.75 5.47908V10.9788H1107.25V5.47908H1101.75ZM1108.25 5.47908V10.9788H1113.75V5.47908H1108.25ZM1114.75 5.47908V10.9788H1120.25V5.47908H1114.75ZM1121.25 5.47908V10.9788H1126.75V5.47908H1121.25ZM1127.75 5.47908V10.9788H1133.25V5.47908H1127.75ZM1133.25 11.9788H1127.75V17.4792H1133.25V11.9788ZM1133.25 18.4792H1127.75V23.9786H1133.25V18.4792ZM1133.25 24.9786H1127.75V30.479H1133.25V24.9786ZM1133.25 31.479H1127.75V36.9791H1133.25V31.479ZM1133.25 37.9791H1127.75V43.4789H1133.25V37.9791ZM1133.25 44.4789H1127.75V49.9791H1133.25V44.4789ZM1133.25 50.9791H1127.75V56.4788H1133.25V50.9791ZM1133.25 57.4788H1127.75V62.9789H1133.25V57.4788ZM1133.25 63.9789H1127.75V69.4791H1133.25V63.9789ZM1133.25 70.4791H1127.75V75.9786H1133.25V70.4791ZM1133.25 76.9786H1127.75V82.4789H1133.25V76.9786ZM1133.25 83.4789H1127.75V88.9788H1133.25V83.4789ZM1133.25 89.9788H1127.75V95.4788H1133.25V89.9788ZM1133.25 96.4788H1127.75V101.979H1133.25V96.4788ZM1126.75 101.979V96.4788H1121.25V101.979H1126.75ZM1120.25 101.979V96.4788H1114.75V101.979H1120.25ZM1113.75 101.979V96.4788H1108.25V101.979H1113.75ZM1107.25 101.979V96.4788H1101.75V101.979H1107.25ZM1100.75 101.979V96.4788H1095.25V101.979H1100.75ZM1094.25 101.979V96.4788H1088.75V101.979H1094.25ZM1087.75 101.979V96.4788H1082.25V101.979H1087.75ZM1081.25 101.979V96.4788H1075.75V101.979H1081.25ZM1074.75 101.979V96.4788H1069.25V101.979H1074.75ZM1068.25 101.979V96.4788H1062.75V101.979H1068.25ZM1061.75 101.979V96.4788H1056.25V101.979H1061.75ZM1055.25 101.979V96.4788H1049.75V101.979H1055.25ZM1048.75 101.979V96.4788H1043.25L1043.25 101.979H1048.75ZM1042.25 101.979L1042.25 96.4788H1036.75V101.979H1042.25ZM1036.75 95.4788H1042.25V89.9788H1036.75L1036.75 95.4788ZM1036.75 88.9788H1042.25V83.4789H1036.75V88.9788ZM1036.75 82.4789H1042.25V76.9786H1036.75L1036.75 82.4789ZM1036.75 75.9786H1042.25L1042.25 70.4791H1036.75V75.9786ZM1036.75 69.4791H1042.25V63.9789H1036.75V69.4791ZM1036.75 62.9789H1042.25V57.4788H1036.75L1036.75 62.9789ZM1036.75 56.4788H1042.25L1042.25 50.9791H1036.75V56.4788ZM1036.75 49.9791H1042.25V44.4789H1036.75L1036.75 49.9791ZM1036.75 43.4789H1042.25V37.9791H1036.75V43.4789ZM1036.75 36.9791H1042.25L1042.25 31.479H1036.75V36.9791ZM1036.75 30.479H1042.25V24.9786H1036.75L1036.75 30.479ZM1036.75 23.9786H1042.25V18.4792H1036.75V23.9786ZM1036.75 17.4792H1042.25V11.9788H1036.75L1036.75 17.4792ZM1043.25 11.9788V17.4792H1048.75L1048.75 11.9788H1043.25ZM1049.75 11.9788L1049.75 17.4792H1055.25L1055.25 11.9788H1049.75ZM1056.25 11.9788L1056.25 17.4792H1061.75V11.9788H1056.25ZM1062.75 11.9788V17.4792H1068.25V11.9788H1062.75ZM1069.25 11.9788V17.4792H1074.75V11.9788H1069.25ZM1075.75 11.9788V17.4792H1081.25V11.9788H1075.75ZM1082.25 11.9788V17.4792H1087.75V11.9788H1082.25ZM1088.75 11.9788V17.4792H1094.25V11.9788H1088.75ZM1095.25 11.9788V17.4792H1100.75V11.9788H1095.25ZM1101.75 11.9788V17.4792H1107.25V11.9788H1101.75ZM1108.25 11.9788V17.4792H1113.75V11.9788H1108.25ZM1114.75 11.9788V17.4792H1120.25V11.9788H1114.75ZM1121.25 11.9788V17.4792H1126.75V11.9788H1121.25ZM1126.75 18.4792H1121.25V23.9786H1126.75V18.4792ZM1126.75 24.9786H1121.25V30.479H1126.75V24.9786ZM1126.75 31.479H1121.25V36.9791H1126.75V31.479ZM1126.75 37.9791H1121.25V43.4789H1126.75V37.9791ZM1126.75 44.4789H1121.25V49.9791H1126.75V44.4789ZM1126.75 50.9791H1121.25V56.4788H1126.75V50.9791ZM1126.75 57.4788H1121.25V62.9789H1126.75V57.4788ZM1126.75 63.9789H1121.25V69.4791H1126.75V63.9789ZM1126.75 70.4791H1121.25V75.9786H1126.75V70.4791ZM1126.75 76.9786H1121.25V82.4789H1126.75V76.9786ZM1126.75 83.4789H1121.25V88.9788H1126.75V83.4789ZM1126.75 89.9788H1121.25V95.4788H1126.75V89.9788ZM1120.25 95.4788V89.9788H1114.75V95.4788H1120.25ZM1113.75 95.4788V89.9788H1108.25V95.4788H1113.75ZM1107.25 95.4788V89.9788H1101.75V95.4788H1107.25ZM1100.75 95.4788V89.9788H1095.25V95.4788H1100.75ZM1094.25 95.4788V89.9788H1088.75V95.4788H1094.25ZM1087.75 95.4788V89.9788H1082.25V95.4788H1087.75ZM1081.25 95.4788V89.9788H1075.75V95.4788H1081.25ZM1074.75 95.4788V89.9788H1069.25V95.4788H1074.75ZM1068.25 95.4788V89.9788H1062.75V95.4788H1068.25ZM1061.75 95.4788V89.9788H1056.25L1056.25 95.4788H1061.75ZM1055.25 95.4788L1055.25 89.9788H1049.75L1049.75 95.4788H1055.25ZM1048.75 95.4788L1048.75 89.9788H1043.25V95.4788H1048.75ZM1043.25 88.9788H1048.75V83.4789H1043.25V88.9788ZM1043.25 82.4789H1048.75V76.9786H1043.25V82.4789ZM1043.25 75.9786H1048.75V70.4791H1043.25L1043.25 75.9786ZM1043.25 69.4791H1048.75V63.9789H1043.25V69.4791ZM1043.25 62.9789H1048.75V57.4788H1043.25V62.9789ZM1043.25 56.4788H1048.75L1048.75 50.9791H1043.25L1043.25 56.4788ZM1043.25 49.9791H1048.75V44.4789H1043.25V49.9791ZM1043.25 43.4789H1048.75V37.9791H1043.25V43.4789ZM1043.25 36.9791H1048.75V31.479H1043.25L1043.25 36.9791ZM1043.25 30.479H1048.75V24.9786H1043.25V30.479ZM1043.25 23.9786H1048.75V18.4792H1043.25V23.9786ZM1049.75 18.4792V23.9786H1055.25V18.4792H1049.75ZM1056.25 18.4792V23.9786H1061.75V18.4792H1056.25ZM1062.75 18.4792V23.9786H1068.25V18.4792H1062.75ZM1069.25 18.4792V23.9786H1074.75V18.4792H1069.25ZM1075.75 18.4792V23.9786H1081.25V18.4792H1075.75ZM1082.25 18.4792V23.9786H1087.75V18.4792H1082.25ZM1088.75 18.4792V23.9786H1094.25V18.4792H1088.75ZM1095.25 18.4792V23.9786H1100.75V18.4792H1095.25ZM1101.75 18.4792V23.9786H1107.25V18.4792H1101.75ZM1108.25 18.4792V23.9786H1113.75V18.4792H1108.25ZM1114.75 18.4792V23.9786H1120.25V18.4792H1114.75ZM1120.25 24.9786H1114.75V30.479H1120.25V24.9786ZM1120.25 31.479H1114.75V36.9791H1120.25V31.479ZM1120.25 37.9791H1114.75V43.4789H1120.25V37.9791ZM1120.25 44.4789H1114.75V49.9791H1120.25V44.4789ZM1120.25 50.9791H1114.75V56.4788H1120.25V50.9791ZM1120.25 57.4788H1114.75V62.9789H1120.25V57.4788ZM1120.25 63.9789H1114.75V69.4791H1120.25V63.9789ZM1120.25 70.4791H1114.75V75.9786H1120.25V70.4791ZM1120.25 76.9786H1114.75V82.4789H1120.25V76.9786ZM1120.25 83.4789H1114.75V88.9788H1120.25V83.4789ZM1113.75 88.9788V83.4789H1108.25V88.9788H1113.75ZM1107.25 88.9788V83.4789H1101.75V88.9788H1107.25ZM1100.75 88.9788V83.4789H1095.25V88.9788H1100.75ZM1094.25 88.9788V83.4789H1088.75V88.9788H1094.25ZM1087.75 88.9788V83.4789H1082.25V88.9788H1087.75ZM1081.25 88.9788V83.4789H1075.75V88.9788H1081.25ZM1074.75 88.9788V83.4789H1069.25V88.9788H1074.75ZM1068.25 88.9788V83.4789H1062.75V88.9788H1068.25ZM1061.75 88.9788V83.4789H1056.25V88.9788H1061.75ZM1055.25 88.9788V83.4789H1049.75V88.9788H1055.25ZM1049.75 82.4789H1055.25V76.9786H1049.75V82.4789ZM1049.75 75.9786H1055.25V70.4791H1049.75V75.9786ZM1049.75 69.4791H1055.25V63.9789H1049.75V69.4791ZM1049.75 62.9789H1055.25V57.4788H1049.75V62.9789ZM1049.75 56.4788H1055.25L1055.25 50.9791H1049.75L1049.75 56.4788ZM1049.75 49.9791H1055.25V44.4789H1049.75V49.9791ZM1049.75 43.4789H1055.25V37.9791H1049.75V43.4789ZM1049.75 36.9791H1055.25V31.479H1049.75V36.9791ZM1049.75 30.479H1055.25V24.9786H1049.75V30.479ZM1056.25 24.9786V30.479H1061.75V24.9786H1056.25ZM1062.75 24.9786V30.479H1068.25V24.9786H1062.75ZM1069.25 24.9786V30.479H1074.75V24.9786H1069.25ZM1075.75 24.9786V30.479H1081.25V24.9786H1075.75ZM1082.25 24.9786V30.479H1087.75V24.9786H1082.25ZM1088.75 24.9786V30.479H1094.25V24.9786H1088.75ZM1095.25 24.9786V30.479H1100.75V24.9786H1095.25ZM1101.75 24.9786V30.479H1107.25V24.9786H1101.75ZM1108.25 24.9786V30.479H1113.75V24.9786H1108.25ZM1113.75 31.479H1108.25V36.9791H1113.75V31.479ZM1113.75 37.9791H1108.25V43.4789H1113.75V37.9791ZM1113.75 44.4789H1108.25V49.9791H1113.75V44.4789ZM1113.75 50.9791H1108.25V56.4788H1113.75V50.9791ZM1113.75 57.4788H1108.25V62.9789H1113.75V57.4788ZM1113.75 63.9789H1108.25V69.4791H1113.75V63.9789ZM1113.75 70.4791H1108.25V75.9786H1113.75V70.4791ZM1113.75 76.9786H1108.25V82.4789H1113.75V76.9786ZM1107.25 82.4789V76.9786H1101.75V82.4789H1107.25ZM1100.75 82.4789V76.9786H1095.25V82.4789H1100.75ZM1094.25 82.4789V76.9786H1088.75V82.4789H1094.25ZM1087.75 82.4789V76.9786H1082.25V82.4789H1087.75ZM1081.25 82.4789V76.9786H1075.75V82.4789H1081.25ZM1074.75 82.4789V76.9786H1069.25V82.4789H1074.75ZM1068.25 82.4789V76.9786H1062.75V82.4789H1068.25ZM1061.75 82.4789V76.9786H1056.25V82.4789H1061.75ZM1056.25 75.9786H1061.75V70.4791H1056.25V75.9786ZM1056.25 69.4791H1061.75V63.9789H1056.25V69.4791ZM1056.25 62.9789H1061.75V57.4788H1056.25V62.9789ZM1056.25 56.4788H1061.75L1061.75 50.9791H1056.25L1056.25 56.4788ZM1056.25 49.9791H1061.75V44.4789H1056.25V49.9791ZM1056.25 43.4789H1061.75V37.9791H1056.25V43.4789ZM1056.25 36.9791H1061.75V31.479H1056.25V36.9791ZM1062.75 31.479V36.9791H1068.25V31.479H1062.75ZM1069.25 31.479V36.9791H1074.75V31.479H1069.25ZM1075.75 31.479V36.9791H1081.25V31.479H1075.75ZM1082.25 31.479V36.9791H1087.75V31.479H1082.25ZM1088.75 31.479V36.9791H1094.25V31.479H1088.75ZM1095.25 31.479V36.9791H1100.75V31.479H1095.25ZM1101.75 31.479V36.9791H1107.25V31.479H1101.75ZM1107.25 37.9791H1101.75V43.4789H1107.25V37.9791ZM1107.25 44.4789H1101.75V49.9791H1107.25V44.4789ZM1107.25 50.9791H1101.75V56.4788H1107.25V50.9791ZM1107.25 57.4788H1101.75V62.9789H1107.25V57.4788ZM1107.25 63.9789H1101.75V69.4791H1107.25V63.9789ZM1107.25 70.4791H1101.75V75.9786H1107.25V70.4791ZM1100.75 75.9786V70.4791H1095.25V75.9786H1100.75ZM1094.25 75.9786V70.4791H1088.75V75.9786H1094.25ZM1087.75 75.9786V70.4791H1082.25V75.9786H1087.75ZM1081.25 75.9786V70.4791H1075.75V75.9786H1081.25ZM1074.75 75.9786V70.4791H1069.25V75.9786H1074.75ZM1068.25 75.9786V70.4791H1062.75V75.9786H1068.25ZM1062.75 69.4791H1068.25V63.9789H1062.75V69.4791ZM1062.75 62.9789H1068.25V57.4788H1062.75V62.9789ZM1062.75 56.4788H1068.25L1068.25 50.9791H1062.75L1062.75 56.4788ZM1062.75 49.9791H1068.25V44.4789H1062.75V49.9791ZM1062.75 43.4789H1068.25V37.9791H1062.75V43.4789ZM1069.25 37.9791V43.4789H1074.75V37.9791H1069.25ZM1075.75 37.9791V43.4789H1081.25V37.9791H1075.75ZM1082.25 37.9791V43.4789H1087.75V37.9791H1082.25ZM1088.75 37.9791V43.4789H1094.25V37.9791H1088.75ZM1095.25 37.9791V43.4789H1100.75V37.9791H1095.25ZM1100.75 44.4789H1095.25V49.9791H1100.75V44.4789ZM1100.75 50.9791H1095.25V56.4788H1100.75V50.9791ZM1100.75 57.4788H1095.25V62.9789H1100.75V57.4788ZM1100.75 63.9789H1095.25V69.4791H1100.75V63.9789ZM1094.25 69.4791V63.9789H1088.75V69.4791H1094.25ZM1087.75 69.4791V63.9789H1082.25V69.4791H1087.75ZM1081.25 69.4791V63.9789H1075.75V69.4791H1081.25ZM1074.75 69.4791V63.9789H1069.25V69.4791H1074.75ZM1069.25 62.9789H1074.75V57.4788H1069.25V62.9789ZM1069.25 56.4788H1074.75L1074.75 50.9791H1069.25L1069.25 56.4788ZM1069.25 49.9791H1074.75V44.4789H1069.25V49.9791ZM1075.75 44.4789V49.9791H1081.25V44.4789H1075.75ZM1082.25 44.4789V49.9791H1087.75V44.4789H1082.25ZM1088.75 44.4789V49.9791H1094.25V44.4789H1088.75ZM1094.25 50.9791H1088.75L1088.75 56.4788H1094.25V50.9791ZM1094.25 57.4788H1088.75V62.9789H1094.25V57.4788ZM1087.75 62.9789V57.4788H1082.25V62.9789H1087.75ZM1081.25 62.9789V57.4788H1075.75V62.9789H1081.25ZM1075.75 56.4788H1081.25L1081.25 50.9791H1075.75L1075.75 56.4788ZM1082.25 50.9791L1082.25 56.4788H1087.75L1087.75 50.9791H1082.25Z" fill="#00A3FF"/>
</g>
<circle cx="1085" cy="55.0831" r="47.25" stroke="white" stroke-opacity="0.6" stroke-width="3"/>
<circle cx="1085" cy="55.0833" r="53.0833" stroke="#00A3FF" stroke-opacity="0.3" stroke-width="4"/>
<circle cx="1085" cy="55.0833" r="53.0833" stroke="url(#paint11_linear_8775:32898)"/>
<path d="M1077.39 75.4981C1074.6 70.1495 1076.07 67.0762 1078.27 64.2708C1080.61 61.0625 1081.2 57.9893 1081.2 57.9893C1081.2 57.9893 1083.11 60.1296 1082.37 63.6051C1085.6 60.261 1086.18 54.9167 1085.74 52.9115C1093.07 57.5907 1096.3 67.8857 1092.05 75.3703C1114.63 63.6051 1097.62 46.0955 1094.69 44.2224C1095.72 46.227 1095.86 49.571 1093.81 51.1734C1090.44 39.4045 1082.08 37.1328 1082.08 37.1328C1083.11 43.1472 1078.56 49.6996 1074.16 54.6452C1074.01 52.2377 1073.87 50.6354 1072.4 48.2286C1072.11 52.6407 1068.44 56.1161 1067.42 60.5282C1066.1 66.5426 1068.44 70.8189 1077.39 75.4981Z" fill="url(#paint12_linear_8775:32898)"/>
<g filter="url(#filter1_f_8775:32898)">
<ellipse cx="898" cy="154" rx="81" ry="12" fill="#00DDFF"/>
</g>
<path d="M892 136L905.856 148H878.144L892 136Z" fill="#00DDFF"/>
<defs>
<filter id="filter0_i_8775:32898" x="1033.25" y="3.33313" width="103.5" height="103.5" filterUnits="userSpaceOnUse" color-interpolation-filters="sRGB">
<feFlood flood-opacity="0" result="BackgroundImageFix"/>
<feBlend mode="normal" in="SourceGraphic" in2="BackgroundImageFix" result="shape"/>
<feColorMatrix in="SourceAlpha" type="matrix" values="0 0 0 0 0 0 0 0 0 0 0 0 0 0 0 0 0 0 127 0" result="hardAlpha"/>
<feOffset/>
<feGaussianBlur stdDeviation="12"/>
<feComposite in2="hardAlpha" operator="arithmetic" k2="-1" k3="1"/>
<feColorMatrix type="matrix" values="0 0 0 0 0 0 0 0 0 0.639216 0 0 0 0 1 0 0 0 1 0"/>
<feBlend mode="normal" in2="shape" result="effect1_innerShadow_8775:32898"/>
</filter>
<filter id="filter1_f_8775:32898" x="792" y="117" width="212" height="74" filterUnits="userSpaceOnUse" color-interpolation-filters="sRGB">
<feFlood flood-opacity="0" result="BackgroundImageFix"/>
<feBlend mode="normal" in="SourceGraphic" in2="BackgroundImageFix" result="shape"/>
<feGaussianBlur stdDeviation="12.5" result="effect1_foregroundBlur_8775:32898"/>
</filter>
<linearGradient id="paint0_linear_8775:32898" x1="2167.52" y1="113.5" x2="-0.519744" y2="113.5" gradientUnits="userSpaceOnUse">
<stop stop-color="#101F42" stop-opacity="0"/>
<stop offset="0.276042" stop-color="#101F42" stop-opacity="0.9"/>
<stop offset="0.5" stop-color="#101F42" stop-opacity="0.9"/>
<stop offset="0.729167" stop-color="#101F42" stop-opacity="0.9"/>
<stop offset="1" stop-color="#101F42" stop-opacity="0"/>
</linearGradient>
<linearGradient id="paint1_linear_8775:32898" x1="533.069" y1="129.486" x2="1.00005" y2="129.486" gradientUnits="userSpaceOnUse">
<stop stop-color="#00A3FF"/>
<stop offset="1" stop-color="#00A3FF" stop-opacity="0"/>
</linearGradient>
<linearGradient id="paint2_linear_8775:32898" x1="1632.29" y1="129.486" x2="2168.52" y2="129.486" gradientUnits="userSpaceOnUse">
<stop stop-color="#00A3FF"/>
<stop offset="1" stop-color="#00A3FF" stop-opacity="0"/>
</linearGradient>
<linearGradient id="paint3_linear_8775:32898" x1="1226.51" y1="72.9867" x2="1227" y2="129.5" gradientUnits="userSpaceOnUse">
<stop stop-color="#00A3FF" stop-opacity="0.9"/>
<stop offset="1" stop-color="#00A3FF" stop-opacity="0"/>
</linearGradient>
<linearGradient id="paint4_linear_8775:32898" x1="1414.5" y1="72.0084" x2="1414" y2="134" gradientUnits="userSpaceOnUse">
<stop stop-color="#00A3FF" stop-opacity="0.9"/>
<stop offset="1" stop-color="#00A3FF" stop-opacity="0"/>
</linearGradient>
<linearGradient id="paint5_linear_8775:32898" x1="858.485" y1="72.9797" x2="858.485" y2="125.961" gradientUnits="userSpaceOnUse">
<stop stop-color="#00A3FF" stop-opacity="0.9"/>
<stop offset="1" stop-color="#00A3FF" stop-opacity="0"/>
</linearGradient>
<linearGradient id="paint6_linear_8775:32898" x1="858.485" y1="72.9797" x2="858" y2="146" gradientUnits="userSpaceOnUse">
<stop stop-color="white"/>
<stop offset="1" stop-color="#00DDFF" stop-opacity="0"/>
</linearGradient>
<linearGradient id="paint7_linear_8775:32898" x1="937" y1="77" x2="937" y2="122" gradientUnits="userSpaceOnUse">
<stop offset="0.0833333" stop-color="white"/>
<stop offset="1" stop-color="#00DDFF"/>
</linearGradient>
<linearGradient id="paint8_linear_8775:32898" x1="653" y1="69" x2="653" y2="129" gradientUnits="userSpaceOnUse">
<stop stop-color="#00A3FF" stop-opacity="0.9"/>
<stop offset="1" stop-color="#00A3FF" stop-opacity="0"/>
</linearGradient>
<linearGradient id="paint9_linear_8775:32898" x1="1085" y1="6.33313" x2="1085" y2="166.617" gradientUnits="userSpaceOnUse">
<stop stop-color="#0B2D51"/>
<stop offset="0.8125" stop-color="#0B2D51"/>
</linearGradient>
<linearGradient id="paint10_linear_8775:32898" x1="1085" y1="6.33313" x2="1085" y2="103.833" gradientUnits="userSpaceOnUse">
<stop stop-color="#1E4BB9"/>
<stop offset="1" stop-color="#002377"/>
</linearGradient>
<linearGradient id="paint11_linear_8775:32898" x1="1085" y1="2" x2="1085" y2="108.167" gradientUnits="userSpaceOnUse">
<stop stop-color="white"/>
<stop offset="1" stop-color="#00A3FF" stop-opacity="0.5"/>
</linearGradient>
<linearGradient id="paint12_linear_8775:32898" x1="1085.33" y1="37.1328" x2="1085.33" y2="75.4981" gradientUnits="userSpaceOnUse">
<stop stop-color="white"/>
<stop offset="1" stop-color="#00A3FF"/>
</linearGradient>
<clipPath id="clip0_8775:32898">
<rect width="51" height="51" fill="white" transform="translate(1201 73)"/>
</clipPath>
<clipPath id="clip1_8775:32898">
<rect width="53" height="53" fill="white" transform="translate(1388 72)"/>
</clipPath>
<clipPath id="clip2_8775:32898">
<rect width="61" height="53" fill="white" transform="translate(828 73)"/>
</clipPath>
<clipPath id="clip3_8775:32898">
<rect width="61" height="53" fill="white" transform="translate(828 73)"/>
</clipPath>
<clipPath id="clip4_8775:32898">
<rect width="60" height="60" fill="white" transform="translate(623 69)"/>
</clipPath>
</defs>
</svg>
