<svg width="63" height="63" viewBox="0 0 63 63" fill="none" xmlns="http://www.w3.org/2000/svg">
<rect x="30.5322" y="4.46428" width="2.43507" height="6.08766" rx="0.64" fill="#FABC48"/>
<circle cx="31.7503" cy="31.8588" r="18.263" fill="url(#paint0_linear_9239:3038)"/>
<path fill-rule="evenodd" clip-rule="evenodd" d="M43.7689 7.99838C43.9456 7.69227 44.337 7.58739 44.6431 7.76412L45.6434 8.34165C45.9495 8.51839 46.0544 8.9098 45.8777 9.21591L43.4739 13.3795C43.2971 13.6856 42.9057 13.7905 42.5996 13.6137L41.5993 13.0362C41.2932 12.8595 41.1883 12.468 41.365 12.1619L43.7689 7.99838Z" fill="#FABC48"/>
<path fill-rule="evenodd" clip-rule="evenodd" d="M53.7836 17.1227C54.0897 16.946 54.4812 17.0509 54.6579 17.357L55.2354 18.3573C55.4122 18.6634 55.3073 19.0548 55.0012 19.2315L50.8376 21.6354C50.5315 21.8121 50.1401 21.7072 49.9634 21.4011L49.3858 20.4008C49.2091 20.0947 49.314 19.7033 49.6201 19.5265L53.7836 17.1227Z" fill="#FABC48"/>
<path fill-rule="evenodd" clip-rule="evenodd" d="M57.8961 30.0325C58.2496 30.0325 58.5361 30.319 58.5361 30.6725V31.8276C58.5361 32.181 58.2496 32.4676 57.8961 32.4676H53.0885C52.735 32.4676 52.4485 32.181 52.4485 31.8276V30.6725C52.4485 30.319 52.735 30.0325 53.0885 30.0325H57.8961Z" fill="#FABC48"/>
<path fill-rule="evenodd" clip-rule="evenodd" d="M55.0014 43.2684C55.3075 43.4452 55.4124 43.8366 55.2357 44.1427L54.6581 45.143C54.4814 45.4491 54.09 45.554 53.7839 45.3773L49.6203 42.9734C49.3142 42.7967 49.2093 42.4053 49.3861 42.0992L49.9636 41.0989C50.1403 40.7927 50.5317 40.6879 50.8378 40.8646L55.0014 43.2684Z" fill="#FABC48"/>
<path fill-rule="evenodd" clip-rule="evenodd" d="M45.8773 53.2841C46.054 53.5902 45.9491 53.9816 45.643 54.1583L44.6427 54.7359C44.3366 54.9126 43.9452 54.8077 43.7684 54.5016L41.3646 50.338C41.1879 50.0319 41.2928 49.6405 41.5989 49.4638L42.5992 48.8862C42.9053 48.7095 43.2967 48.8144 43.4734 49.1205L45.8773 53.2841Z" fill="#FABC48"/>
<rect x="32.9678" y="58.0357" width="2.43506" height="6.08766" rx="0.64" transform="rotate(180 32.9678 58.0357)" fill="#FABC48"/>
<path fill-rule="evenodd" clip-rule="evenodd" d="M19.7311 54.5016C19.5544 54.8077 19.163 54.9126 18.8569 54.7358L17.8566 54.1583C17.5505 53.9816 17.4456 53.5902 17.6223 53.2841L20.0261 49.1205C20.2029 48.8144 20.5943 48.7095 20.9004 48.8862L21.9007 49.4638C22.2068 49.6405 22.3117 50.0319 22.135 50.338L19.7311 54.5016Z" fill="#FABC48"/>
<path fill-rule="evenodd" clip-rule="evenodd" d="M9.71637 45.3773C9.41026 45.554 9.01884 45.4491 8.84211 45.143L8.26458 44.1427C8.08785 43.8366 8.19273 43.4452 8.49883 43.2684L12.6624 40.8646C12.9685 40.6879 13.3599 40.7927 13.5366 41.0989L14.1142 42.0992C14.2909 42.4053 14.186 42.7967 13.8799 42.9734L9.71637 45.3773Z" fill="#FABC48"/>
<path fill-rule="evenodd" clip-rule="evenodd" d="M5.60387 32.4675C5.2504 32.4675 4.96387 32.181 4.96387 31.8275V30.6724C4.96387 30.319 5.2504 30.0324 5.60387 30.0324H10.4115C10.765 30.0324 11.0515 30.319 11.0515 30.6724V31.8275C11.0515 32.181 10.765 32.4675 10.4115 32.4675H5.60387Z" fill="#FABC48"/>
<path fill-rule="evenodd" clip-rule="evenodd" d="M8.49859 19.2316C8.19249 19.0548 8.0876 18.6634 8.26434 18.3573L8.84187 17.357C9.0186 17.0509 9.41002 16.946 9.71612 17.1227L13.8797 19.5266C14.1858 19.7033 14.2907 20.0947 14.1139 20.4008L13.5364 21.4012C13.3597 21.7073 12.9683 21.8121 12.6622 21.6354L8.49859 19.2316Z" fill="#FABC48"/>
<path fill-rule="evenodd" clip-rule="evenodd" d="M17.6227 9.21591C17.446 8.9098 17.5509 8.51838 17.857 8.34165L18.8573 7.76412C19.1634 7.58739 19.5548 7.69227 19.7316 7.99838L22.1354 12.1619C22.3121 12.468 22.2072 12.8595 21.9011 13.0362L20.9008 13.6137C20.5947 13.7905 20.2033 13.6856 20.0266 13.3795L17.6227 9.21591Z" fill="#FABC48"/>
<defs>
<linearGradient id="paint0_linear_9239:3038" x1="13.4873" y1="13.5958" x2="13.4873" y2="50.1218" gradientUnits="userSpaceOnUse">
<stop stop-color="#FFE35B"/>
<stop offset="1" stop-color="#F7A43D"/>
</linearGradient>
</defs>
</svg>
