<svg width="34" height="34" viewBox="0 0 34 34" fill="none" xmlns="http://www.w3.org/2000/svg">
<path d="M28.0775 32.4959C27.7884 32.207 27.4162 32.0012 27.0008 31.9182C26.7515 31.8684 26.5721 31.6559 26.5721 31.4035V19.198C26.5721 13.9188 22.2485 9.54258 16.9644 9.5625C11.697 9.58242 7.42989 13.8557 7.42989 19.125V31.4035C7.42989 31.6559 7.25043 31.8684 7.00118 31.9182C6.03078 32.1174 5.30298 32.974 5.30298 34H28.699C28.699 33.4123 28.4597 32.8811 28.0775 32.4959ZM18.8388 15.4062L18.194 21.1604H20.7231L15.1665 29.2188L15.8112 23.4646H13.2789L18.8388 15.4062ZM17.001 6.90625C16.4128 6.90625 15.9375 6.43145 15.9375 5.84375V1.0625C15.9375 0.474805 16.4128 0 17.001 0C17.5892 0 18.0644 0.474805 18.0644 1.0625V5.84375C18.0644 6.43145 17.5892 6.90625 17.001 6.90625ZM9.29093 9.83145C8.78247 10.1236 8.1311 9.95098 7.83865 9.44297L5.44588 5.30254C5.15343 4.79453 5.32624 4.14375 5.83471 3.85156C6.34317 3.55938 6.99454 3.73203 7.28699 4.24004L9.67976 8.38047C9.97221 8.88848 9.7994 9.53594 9.29093 9.83145ZM24.711 9.83145C25.2195 10.1236 25.8709 9.95098 26.1633 9.44297L28.5561 5.30254C28.8485 4.79453 28.6757 4.14375 28.1672 3.85156C27.6588 3.55938 27.0074 3.73203 26.715 4.24004L24.3222 8.38047C24.0297 8.88848 24.2026 9.53594 24.711 9.83145ZM6.71538 14.7721C6.56251 15.3398 5.98093 15.6752 5.41265 15.5225L0.789943 14.2873C0.22166 14.1346 -0.113993 13.5535 0.0355552 12.9857C0.188427 12.418 0.770003 12.0826 1.33829 12.2354L5.96099 13.4738C6.52927 13.6232 6.86493 14.2043 6.71538 14.7721ZM27.2866 14.7721C27.4394 15.3398 28.021 15.6752 28.5893 15.5225L33.212 14.284C33.7803 14.1313 34.116 13.5502 33.9631 12.9824C33.8102 12.4146 33.2286 12.0793 32.6603 12.232L28.0376 13.4705C27.4727 13.6232 27.137 14.2043 27.2866 14.7721Z" fill="#FF8540"/>
</svg>
