<svg width="69" height="37" viewBox="0 0 69 37" fill="none" xmlns="http://www.w3.org/2000/svg">
<path d="M68.3262 7.62924L68.3262 29.9061C67.5263 31.0213 65.7909 31.8962 63.1201 32.5302L1.18488 32.5302C0.912543 32.5302 0.651366 32.422 0.458792 32.2295C0.266219 32.0369 0.158034 31.7757 0.158034 31.5034L0.158035 5.83226C0.158035 5.55993 0.26622 5.29874 0.458794 5.10617C0.651367 4.9136 0.912544 4.80542 1.18488 4.80542L63.1201 4.80542C66.1441 5.56734 67.8795 6.50896 68.3262 7.62924Z" fill="#A85424"/>
<path d="M68.3262 29.9061C67.5263 31.0213 65.7909 31.8962 63.1201 32.5302L1.18488 32.5302C0.912543 32.5302 0.651366 32.422 0.458792 32.2295C0.266219 32.0369 0.158034 31.7757 0.158034 31.5034L0.158035 5.83226C0.158035 5.55993 0.26622 5.29874 0.458794 5.10617C0.651367 4.9136 0.912544 4.80542 1.18488 4.80542L63.1201 4.80542C66.1441 5.56734 67.8795 6.50896 68.3262 7.62924L68.3262 29.9061ZM67.8127 29.7321L67.8127 7.73655L67.783 7.67905C67.3537 6.88581 65.9757 6.12697 63.6468 5.47646L63.213 5.3594L63.0569 5.31884L1.18488 5.31884C1.05913 5.31886 0.937752 5.36503 0.84378 5.44859C0.749809 5.53215 0.689774 5.6473 0.675056 5.77219L0.671463 5.83226L0.671462 31.5034C0.671477 31.6291 0.717643 31.7505 0.801207 31.8445C0.884772 31.9385 0.999923 31.9985 1.12482 32.0132L1.18488 32.0168L63.0585 32.0168L63.2387 31.9732C65.508 31.4094 67.0154 30.6701 67.7645 29.7911L67.8127 29.7321Z" fill="#FFD77B"/>
<path d="M54.0679 32.531C53.7955 32.531 53.5343 32.4228 53.3418 32.2302C53.1492 32.0376 53.041 31.7765 53.041 31.5041L53.041 5.833C53.041 5.56067 53.1492 5.29949 53.3418 5.10691C53.5343 4.91434 53.7955 4.80616 54.0679 4.80616L57.9237 4.80616C57.058 3.86557 56.2638 3.11032 55.5404 2.53991C54.4555 1.68455 56.7941 0.0164394 57.9237 0.48006C58.6769 0.78914 59.6667 2.23083 60.8928 4.80616L63.121 4.80616C66.1451 5.56808 67.8805 6.50969 68.3271 7.62998L68.3271 29.9069C67.5272 31.022 65.7919 31.8969 63.121 32.531L60.8928 32.531C59.6667 35.1058 58.6769 36.548 57.9237 36.8571C56.7941 37.3207 54.456 35.6526 55.5414 34.7972C56.2643 34.2273 57.0585 33.4716 57.9237 32.531L54.0679 32.531Z" fill="#A85424"/>
<path d="M68.3262 29.9063C67.5263 31.0215 65.7909 31.8963 63.1201 32.5304L60.8918 32.5304L60.7927 32.7368L60.5976 33.1342L60.5021 33.3257L60.3137 33.6938L60.1294 34.0419L59.9497 34.37L59.8609 34.5266L59.6868 34.8249L59.5174 35.1037C59.4055 35.2823 59.2966 35.4482 59.1898 35.6012L59.0327 35.8199C58.6184 36.3775 58.2487 36.723 57.9227 36.857C57.4473 37.0521 56.7572 36.8688 56.1991 36.5284L56.062 36.4396C55.3725 35.9673 54.95 35.2618 55.5399 34.7966C56.2638 34.2267 57.0576 33.471 57.9227 32.5304L54.0674 32.5304C53.7951 32.5304 53.5339 32.4222 53.3413 32.2296C53.1487 32.0371 53.0406 31.7759 53.0406 31.5036L53.0406 5.83243C53.0406 5.5601 53.1487 5.29891 53.3413 5.10634C53.5339 4.91377 53.7951 4.80559 54.0674 4.80559L57.9232 4.80559C57.0576 3.865 56.2633 3.10975 55.5399 2.53934C54.9495 2.07418 55.3725 1.36874 56.062 0.896388L56.1991 0.807566C56.7572 0.467167 57.4473 0.283875 57.9227 0.478975C58.3832 0.668942 58.9326 1.28145 59.5698 2.31805L59.7459 2.61071L59.8357 2.76576L60.0185 3.09024L60.1109 3.2607L60.3009 3.6165L60.4939 3.99387L60.6921 4.39228L60.8918 4.80559L63.1201 4.80559C66.1441 5.56751 67.8795 6.50912 68.3262 7.62941L68.3262 29.9063ZM67.8127 29.7322L67.8127 7.73672L67.783 7.67921C67.3537 6.88598 65.9757 6.12714 63.6468 5.47663L63.213 5.35957L63.0569 5.31901L60.5684 5.31901L60.3301 4.82253L60.2346 4.62589L60.0467 4.24698L59.9543 4.06523L59.7726 3.7161L59.6832 3.54976L59.5087 3.23143C59.4511 3.12875 59.3947 3.02915 59.3387 2.93314L59.1734 2.65486C59.1467 2.61019 59.1195 2.56655 59.0928 2.52342L58.9357 2.27595L58.8587 2.15992L58.7098 1.94326C58.3191 1.39236 57.9874 1.06068 57.7281 0.954405C57.4016 0.820915 56.729 1.0155 56.2192 1.41751C55.774 1.76921 55.6985 2.01051 55.8577 2.1363C56.5472 2.6795 57.2937 3.38084 58.0983 4.2398L58.3006 4.458L59.0928 5.31901L54.0674 5.31901C53.9416 5.31903 53.8203 5.3652 53.7263 5.44876C53.6323 5.53232 53.5723 5.64747 53.5576 5.77236L53.554 5.83243L53.554 31.5036C53.554 31.6293 53.6002 31.7507 53.6837 31.8447C53.7673 31.9386 53.8824 31.9987 54.0073 32.0134L54.0674 32.017L59.0928 32.017L58.3006 32.878C57.4185 33.8371 56.6047 34.6108 55.8577 35.1997C55.6985 35.3255 55.774 35.5668 56.2192 35.9185C56.729 36.3205 57.4016 36.5156 57.7281 36.3816C57.9971 36.2712 58.3427 35.92 58.7503 35.3352L58.8972 35.1191C58.947 35.0436 58.9973 34.9651 59.0486 34.8834L59.2052 34.6288C59.2321 34.5839 59.2588 34.5389 59.2853 34.4937L59.4491 34.2103L59.6175 33.9074L59.79 33.5855L59.9671 33.2446L60.1484 32.8852L60.3337 32.5063L60.5673 32.017L63.0585 32.017L63.2387 31.9733C65.508 31.4096 67.0154 30.6703 67.7645 29.7913L67.8127 29.7322Z" fill="#FFD77B"/>
<path d="M12.4809 7.88585L2.21242 7.88585L3.23926 6.34558L11.454 6.34558L12.4809 7.88585ZM12.4809 29.4496L11.454 30.9899L3.23926 30.9899L2.21242 29.4496L12.4809 29.4496ZM25.3164 7.88585L15.048 7.88585L16.0748 6.34558L24.2896 6.34558L25.3164 7.88585ZM25.3164 29.4496L24.2896 30.9899L16.0748 30.9899L15.048 29.4496L25.3164 29.4496ZM38.6654 7.88585L28.397 7.88585L29.4238 6.34558L37.6386 6.34558L38.6654 7.88585ZM38.6654 29.4496L37.6386 30.9899L29.4238 30.9899L28.397 29.4496L38.6654 29.4496ZM51.501 7.88585L41.2325 7.88585L42.2594 6.34558L50.4741 6.34558L51.501 7.88585ZM51.501 29.4496L50.4741 30.9899L42.2594 30.9899L41.2325 29.4496L51.501 29.4496Z" fill="#F5F793"/>
<path d="M12.4809 7.88585L2.21242 7.88585L3.23926 6.34558L11.454 6.34558L12.4809 7.88585ZM12.4809 29.4496L11.454 30.9899L3.23926 30.9899L2.21242 29.4496L12.4809 29.4496ZM11.5218 7.37242L11.1793 6.859L3.51446 6.859L3.172 7.37242L11.5218 7.37242ZM11.5213 29.963L3.17252 29.963L3.51446 30.4764L11.1793 30.4764L11.5213 29.963ZM25.3164 7.88585L15.048 7.88585L16.0748 6.34558L24.2896 6.34558L25.3164 7.88585ZM25.3164 29.4496L24.2896 30.9899L16.0748 30.9899L15.048 29.4496L25.3164 29.4496ZM24.3574 7.37242L24.0149 6.859L16.35 6.859L16.0076 7.37242L24.3574 7.37242ZM24.3568 29.963L16.0081 29.963L16.35 30.4764L24.0149 30.4764L24.3568 29.963ZM38.6654 7.88585L28.397 7.88585L29.4238 6.34558L37.6386 6.34558L38.6654 7.88585ZM38.6654 29.4496L37.6386 30.9899L29.4238 30.9899L28.397 29.4496L38.6654 29.4496ZM37.7063 7.37242L37.3639 6.859L29.699 6.859L29.3565 7.37242L37.7063 7.37242ZM37.7058 29.963L29.3571 29.963L29.699 30.4764L37.3639 30.4764L37.7058 29.963ZM51.501 7.88585L41.2325 7.88585L42.2594 6.34558L50.4741 6.34558L51.501 7.88585ZM51.501 29.4496L50.4741 30.9899L42.2594 30.9899L41.2325 29.4496L51.501 29.4496ZM50.5419 7.37243L50.1994 6.859L42.5346 6.859L42.1921 7.37242L50.5419 7.37243ZM50.5414 29.963L42.1926 29.963L42.5346 30.4764L50.1994 30.4764L50.5414 29.963Z" fill="#FFBB56"/>
<path d="M51.501 9.4262L2.21242 9.4262L2.21242 8.91278L51.501 8.91278L51.501 9.4262ZM51.501 13.0202L2.21242 13.0202L2.21242 12.5067L51.501 12.5067L51.501 13.0202ZM51.501 17.1275L2.21242 17.1275L2.21242 16.6141L51.501 16.6141L51.501 17.1275ZM51.501 20.7215L2.21242 20.7215L2.21242 20.2081L51.501 20.2081L51.501 20.7215ZM51.501 24.8289L2.21242 24.8289L2.21242 24.3155L51.501 24.3155L51.501 24.8289ZM51.501 28.4228L2.21242 28.4228L2.21242 27.9094L51.501 27.9094L51.501 28.4228Z" fill="#A85424"/>
<path d="M60.9916 7.54328C62.3162 11.2825 62.9785 14.991 62.9785 18.6681C62.9785 22.3453 62.3162 26.0537 60.9916 29.793C60.9207 29.993 60.7896 30.1661 60.6163 30.2886C60.443 30.4111 60.236 30.4768 60.0238 30.4768L55.6078 30.4768C55.473 30.4768 55.3394 30.4503 55.2149 30.3987C55.0903 30.3471 54.9771 30.2714 54.8817 30.1761C54.7864 30.0807 54.7107 29.9675 54.6591 29.8429C54.6075 29.7184 54.581 29.5848 54.581 29.45L54.581 7.88625C54.581 7.7514 54.6075 7.61788 54.6591 7.49329C54.7107 7.36871 54.7864 7.25551 54.8817 7.16016C54.9771 7.06481 55.0903 6.98917 55.2149 6.93757C55.3394 6.88597 55.473 6.85941 55.6078 6.85941L60.0233 6.85941C60.2356 6.85931 60.4427 6.92503 60.6161 7.0475C60.7895 7.16997 60.9207 7.34318 60.9916 7.54328Z" fill="#A85424"/>
<path d="M61.9111 12.8872L55.0944 17.2508L55.0944 20.0885L62.3008 15.4738L61.9111 12.8872Z" fill="#FBFFFF"/>
<path d="M62.3012 15.4738L55.0948 20.0885L55.0948 17.2513L61.9116 12.8872L62.3018 15.4743L62.3012 15.4738ZM61.7442 15.2207L61.5224 13.7462L55.6083 17.5316L55.6083 19.1494L61.7437 15.2207L61.7442 15.2207Z" fill="#D9D9D9"/>
<path d="M62.9795 18.6681C62.9795 22.3453 62.3172 26.0537 60.9925 29.793C60.9216 29.9931 60.7903 30.1664 60.6168 30.2889C60.4433 30.4114 60.2361 30.477 60.0237 30.4768L55.6083 30.4768C55.4734 30.4768 55.3399 30.4503 55.2153 30.3987C55.0907 30.3471 54.9775 30.2714 54.8822 30.1761C54.7868 30.0807 54.7112 29.9675 54.6596 29.8429C54.608 29.7184 54.5814 29.5848 54.5814 29.45L54.5814 7.88625C54.5814 7.7514 54.608 7.61788 54.6596 7.49329C54.7112 7.36871 54.7868 7.25551 54.8822 7.16016C54.9775 7.06481 55.0907 6.98917 55.2153 6.93757C55.3399 6.88597 55.4734 6.85941 55.6083 6.85941L60.0237 6.85941C60.236 6.85931 60.4431 6.92503 60.6165 7.0475C60.7899 7.16997 60.9211 7.34318 60.992 7.54328C62.3167 11.2825 62.979 14.991 62.979 18.6681L62.9795 18.6681ZM62.4661 18.6681C62.4661 15.0505 61.814 11.4001 60.5084 7.71477C60.4766 7.62506 60.4205 7.54597 60.3463 7.48631C60.2721 7.42665 60.1828 7.38879 60.0884 7.37694L60.0242 7.37283L55.6083 7.37283C55.4825 7.37284 55.3612 7.41901 55.2672 7.50258C55.1732 7.58614 55.1132 7.70129 55.0985 7.82618L55.0949 7.88625L55.0949 29.45C55.0949 29.5757 55.141 29.6971 55.2246 29.7911C55.3082 29.8851 55.4233 29.9451 55.5482 29.9598L55.6083 29.9634L60.0237 29.9634C60.13 29.9636 60.2336 29.9308 60.3204 29.8695C60.4072 29.8083 60.4729 29.7216 60.5084 29.6215C61.814 25.9361 62.4661 22.2857 62.4661 18.6681Z" fill="#181818"/>
<path d="M68.3262 15.5874C66.6344 15.8082 65.5357 15.5037 65.03 14.673C64.5238 13.8418 64.4211 10.7007 64.7209 5.24915C66.867 6.0008 68.0689 6.79455 68.3262 7.62937L68.3262 15.5874ZM68.3262 29.7065C68.0689 30.5414 66.8675 31.3351 64.7209 32.0868C64.4211 26.6352 64.5238 23.4936 65.03 22.6629C65.5357 21.8317 66.6344 21.5272 68.3262 21.7485L68.3262 29.7065Z" fill="#FAFEFF"/>
<path d="M68.3262 15.5874C66.6344 15.8082 65.5357 15.5037 65.03 14.673C64.9427 14.5293 64.8672 14.3177 64.8041 14.0369L64.7676 13.8603L64.7338 13.6672L64.7184 13.5645L64.6886 13.3468L64.6752 13.2318L64.6501 12.989L64.628 12.7302L64.6085 12.4545L64.592 12.1624L64.5787 11.8543L64.5684 11.5293L64.5577 11.0108L64.5535 10.4552L64.5556 9.86276L64.5648 9.2333L64.5802 8.56637L64.6018 7.86298L64.63 7.12211L64.6778 6.07627L64.7209 5.24915C66.8003 5.97718 67.993 6.74475 68.2995 7.55133L68.3257 7.62937L68.3257 15.5874L68.3262 15.5874ZM68.3262 29.7065C68.0689 30.5414 66.8675 31.3351 64.7209 32.0868L64.6778 31.2591L64.63 30.2138L64.6018 29.4729L64.5802 28.7695L64.5648 28.1021L64.5582 27.6785L64.5535 27.0737L64.5556 26.5059L64.5607 26.148L64.5679 25.8066L64.5854 25.3255L64.6003 25.0252L64.6182 24.7412L64.6388 24.4743L64.6624 24.2232L64.6886 23.9891L64.7184 23.7714L64.7502 23.5696L64.7676 23.4751L64.8036 23.2985C64.8672 23.0182 64.9422 22.8061 65.0295 22.6629C65.5357 21.8317 66.6344 21.5272 68.3257 21.7485L68.3257 29.7065L68.3262 29.7065ZM67.8127 15.1248L67.8127 7.71717L67.7927 7.67096C67.5499 7.15138 66.714 6.57737 65.2836 6.00696L65.1974 5.97256L65.1681 6.57788L65.127 7.55031L65.0973 8.46163L65.0865 8.89444L65.0721 9.71387L65.068 10.4712L65.0716 10.9979L65.0808 11.4893L65.0896 11.7973L65.108 12.2286L65.1322 12.6245L65.1512 12.8683L65.1722 13.0958L65.2082 13.4069L65.2359 13.5938L65.2503 13.6811L65.2811 13.8433L65.3139 13.9891C65.3433 14.1204 65.3881 14.2478 65.4474 14.3686L65.4679 14.406C65.7914 14.9364 66.4984 15.1962 67.6428 15.1361L67.8127 15.1248ZM67.8127 29.6198L67.8127 22.2106L67.7943 22.209C66.6098 22.1212 65.8669 22.3559 65.5111 22.8647L65.4685 22.9299C65.411 23.0243 65.3591 23.1635 65.3139 23.3468L65.2811 23.4926L65.2503 23.6548L65.222 23.8335C65.2169 23.8643 65.2128 23.8967 65.2087 23.929L65.1835 24.1323L65.1614 24.3515L65.1409 24.5872L65.1152 24.9707L65.0952 25.3907L65.0849 25.6906L65.0736 26.1701L65.0685 26.685L65.0685 27.2354L65.0721 27.6215L65.0865 28.441L65.1039 29.0961L65.1275 29.7856L65.1681 30.758L65.1974 31.3628L65.2805 31.33C66.7048 30.7626 67.5381 30.1917 67.7866 29.6778L67.8127 29.6198Z" fill="#FFD77B"/>
</svg>
