<svg width="77" height="59" viewBox="0 0 77 59" fill="none" xmlns="http://www.w3.org/2000/svg">
<g clip-path="url(#clip0)">
<path d="M7.79406 16.1689C10.5858 13.7592 35.4847 14.5252 47.5851 15.2095C48.8328 24.5681 50.7051 43.3934 48.2124 43.8255C45.7198 44.2575 25.8616 44.49 16.2441 44.5523L8.79527 42.313C7.29833 34.6023 5.00237 18.5786 7.79406 16.1689Z" fill="#140F82"/>
<path d="M16.4908 43.2607L25.0363 40.0677L32.7154 40.0677L41.4342 43.2607L16.4908 43.2607ZM10.5076 29.2182C10.5076 20.7464 11.7238 17.6578 11.7238 17.6578L20.3175 20.5892L20.3175 37.6465L11.7238 40.7785C11.7238 40.7785 10.5076 37.2583 10.5076 29.2182ZM16.4892 15.0345L41.4342 15.0345L32.7154 18.229L25.0363 18.229L16.4892 15.0361L16.4892 15.0345ZM47.5778 29.2182C47.5778 37.2583 45.646 40.7785 45.646 40.7785L37.0523 39.0713L37.0523 19.3634L45.646 17.6594C45.646 17.6594 47.5778 20.7481 47.5778 29.2198L47.5778 29.2182ZM54.7819 43.5094C55.4699 43.4405 56.1078 43.1186 56.5718 42.606C57.0358 42.0933 57.2928 41.4266 57.293 40.7352L57.293 17.7011C57.293 16.2683 56.2067 15.0698 54.7819 14.927L42.7932 13.7332L16.6191 13.7332L7.01144 14.6991C5.77274 14.8263 4.61918 15.3883 3.75559 16.2854C2.89199 17.1825 2.37423 18.3566 2.29423 19.5992L2.26215 19.5992L2.26215 38.8387L2.29423 38.8387C2.37423 40.0813 2.89199 41.2554 3.75559 42.1525C4.61918 43.0496 5.77274 43.6116 7.01144 43.7388L16.6191 44.7031L42.7932 44.7031L54.7819 43.511L54.7819 43.5094Z" fill="#FF5C00"/>
</g>
<path d="M52.3788 37.9379C54.3879 27.3901 53.2159 21.8233 52.3788 20.3583L71.842 10.3128C79.3761 22.3674 74.9812 41.705 71.842 49.867L52.3788 37.9379Z" fill="url(#paint0_linear)"/>
<defs>
<linearGradient id="paint0_linear" x1="74.3533" y1="30.4038" x2="52.3788" y2="30.0899" gradientUnits="userSpaceOnUse">
<stop stop-color="#FEF98E" stop-opacity="0"/>
<stop offset="1" stop-color="#FFFCBD"/>
</linearGradient>
<clipPath id="clip0">
<rect width="57.7617" height="57.7617" fill="white" transform="translate(58.6572 0.267059) rotate(90)"/>
</clipPath>
</defs>
</svg>
