<svg width="33" height="33" viewBox="0 0 33 33" fill="none" xmlns="http://www.w3.org/2000/svg">
<path d="M16.5017 0.366699C7.60641 0.366699 0.366211 7.60323 0.366211 16.5022C0.370244 25.3968 7.60678 32.6334 16.5017 32.6334C25.3963 32.6334 32.6329 25.3968 32.6329 16.5022C32.6329 7.6069 25.3963 0.366699 16.5017 0.366699Z" fill="#FF7217"/>
<path d="M13.5763 22.8743C12.8752 23.2323 12 22.7827 12 22.0663V11.9333C12 11.2173 12.8752 10.7677 13.5763 11.1257L23.4743 16.1926C23.6328 16.2694 23.7656 16.3853 23.8583 16.5277C23.951 16.6701 24 16.8336 24 17.0002C24 17.1668 23.951 17.3303 23.8583 17.4727C23.7656 17.6151 23.6328 17.731 23.4743 17.8078L13.5763 22.8743Z" fill="white"/>
</svg>
