<svg width="715" height="346" viewBox="0 0 715 346" fill="none" xmlns="http://www.w3.org/2000/svg">
<rect x="9.3801" y="338.943" width="61.5867" height="3.07932" fill="#285066"/>
<rect x="3.22144" y="335.863" width="61.5867" height="3.07934" transform="rotate(-90 3.22144 335.863)" fill="#285066"/>
<rect x="3.22144" y="71.0405" width="61.5867" height="3.07934" transform="rotate(-90 3.22144 71.0405)" fill="#285066"/>
<rect x="708.389" y="335.863" width="61.5867" height="3.07934" transform="rotate(-90 708.389 335.863)" fill="#285066"/>
<rect x="708.389" y="71.0405" width="61.5867" height="3.07934" transform="rotate(-90 708.389 71.0405)" fill="#285066"/>
<rect x="9.3801" y="3.29517" width="61.5867" height="3.07934" fill="#285066"/>
<rect x="643.723" y="338.943" width="61.5867" height="3.07932" fill="#285066"/>
<rect x="643.723" y="3.29517" width="61.5867" height="3.07934" fill="#285066"/>
<rect x="0.14209" y="335.863" width="9.23801" height="9.23801" fill="white"/>
<rect x="0.14209" y="0.21582" width="9.23801" height="9.23801" fill="white"/>
<rect x="705.31" y="335.863" width="9.23804" height="9.23801" fill="white"/>
<rect x="705.31" y="0.21582" width="9.23804" height="9.23801" fill="white"/>
</svg>
